/* XPM */
static char *bbbbe5a5b1d84a8ccc6713b3b534903dcFRWlHaOk3vXHcIw[] = {
/* columns rows colors chars-per-pixel */
"50 50 134 2 ",
"   c None",
".  c #040404",
"X  c #060708",
"o  c #070808",
"O  c #0B0C0C",
"+  c #0F0F10",
"@  c #0F1011",
"#  c #131315",
"$  c #161718",
"%  c #17181A",
"&  c #1A1B1C",
"*  c #1D1E21",
"=  c #1F2023",
"-  c #212325",
";  c #242629",
":  c #26282B",
">  c #292B2E",
",  c #2C2E31",
"<  c #2E3134",
"1  c #313337",
"2  c #33353A",
"3  c #36393E",
"4  c #383A3F",
"5  c #373A40",
"6  c #3A3D42",
"7  c #3E4147",
"8  c #3F4248",
"9  c #42454B",
"0  c #45484F",
"q  c #464A51",
"w  c #494D54",
"e  c #4A4F58",
"r  c #4C5057",
"t  c #4E5259",
"y  c #51555D",
"u  c #55595F",
"i  c #525660",
"p  c #555A62",
"a  c #595D65",
"s  c #5B5F68",
"d  c #5D6066",
"f  c #5E626A",
"g  c #61656D",
"h  c #65686E",
"j  c #636771",
"k  c #656A73",
"l  c #6A6E76",
"z  c #6A6F79",
"x  c #6E7076",
"c  c #6D727B",
"v  c #71757D",
"b  c #6F7580",
"n  c #717681",
"m  c #757A84",
"M  c #797D85",
"N  c #797F89",
"B  c #7C828C",
"V  c #7F8591",
"C  c #81868E",
"Z  c #86898F",
"A  c #828791",
"S  c #858A93",
"D  c #898D95",
"F  c #878D98",
"G  c #888E9A",
"H  c #8D929C",
"J  c #909397",
"K  c #91959D",
"L  c #95989D",
"P  c #9297A1",
"I  c #959AA3",
"U  c #9A9EA5",
"Y  c #999EA9",
"T  c #9FA2A6",
"R  c #9DA2AB",
"E  c #A2A6AD",
"W  c #A6A9AC",
"Q  c #A1A7B1",
"!  c #A6ABB4",
"~  c #AAAEB6",
"^  c #A9AFB9",
"/  c #ADB2BA",
"(  c #B2B6BD",
")  c #B7B9BD",
"_  c #B6B9BE",
"`  c #B2B7C0",
"'  c #B3B8C0",
"]  c #B4B9C1",
"[  c #B7BBC4",
"{  c #B5B9C1",
"}  c #B8BBC0",
"|  c #B9BCC1",
" . c #B8BCC3",
".. c #B9BDC3",
"X. c #BABEC4",
"o. c #BABEC5",
"O. c #BBBFC5",
"+. c #B9BEC6",
"@. c #BABFC7",
"#. c #BCBFC5",
"$. c #B9BDC4",
"%. c #BCC1C7",
"&. c #BDC1C9",
"*. c #BCC1C8",
"=. c #C2C4C6",
"-. c #C1C4C9",
";. c #C2C5CA",
":. c #C4C8CD",
">. c #C4C8CE",
",. c #C4C9CF",
"<. c #C5C9CF",
"1. c #C6C9CF",
"2. c #C6CAD0",
"3. c #C6CAD0",
"4. c #C8CCD1",
"5. c #CACDD3",
"6. c #CBCED4",
"7. c #CBCED5",
"8. c #C9CBD1",
"9. c #CDD1D6",
"0. c #CFD2D7",
"q. c #CFD2D8",
"w. c #D1D4D8",
"e. c #D3D6DA",
"r. c #D4D7DD",
"t. c #D1D3D9",
"y. c #D8DBDF",
"u. c #DBDEE0",
"i. c #DBDDE2",
"p. c #DCDEE2",
"a. c #DEE1E6",
"s. c #E1E3E7",
"d. c #EAECEF",
"f. c white",
/* pixels */
"                                                                                                    ",
"                                                                                                    ",
"                                        a @.Y ! X.X.! Q X.a                                         ",
"                                        q d y B ~ ~ B d d q                                         ",
"                                y d H B 0 d 6 9 A A 9 6 d 0 B I f y                                 ",
"                            p C [ l R q.a z p 2 y y 2 p c a 7...n { C p                             ",
"                        t N ( 5.f.X.k H q S d w q q w g A q K l ( f.7.&.H t                         ",
"                  l 0 d ! ' i.=.J g ; $ > N y d m m d u N > $ # d T W L ( ^ d 9 v                   ",
"                ( 5.c w E } J ) d 6 6 & ; % # % = = % # % ; - & 2 B m k D E t c 0...                ",
"              ( a.C k c 9 M -.i.a q 9 # O                 O # & 7 G m m n t c k M r.(               ",
"            ! H T A y z A ..e.p.w 9 9                         . 2 S c m S k k p C U H !             ",
"          0 k p 7 0 a A y.#.~ ! u 7 8                             V k g d b d g 9 6 p k 0           ",
"          d w w N k p 0.:.c t K h 3 3                             M k c 3 q N p l M w q j           ",
"          R 2.U 3 9 k :.S 3 ; H l 3 6                             M k m > ; c 2 r 7 U :.!           ",
"        l R e.:.= * ( P 0 2 q Y h 5 7                             m z c 8 # w t . ; :.e.Y M         ",
"        H { d.v O 9 ( 7 3 y l X.g 2 7                             m z m p * - q # $ v d.( Y         ",
"      y B 8...2 . y A l A g K 5.a 3 6                             c g c k 7 w 9 $ O 2 ..:.F y       ",
"      w R E 9 O O d F g q c ) A u 3 4                             k k f d 9 , 0 % # O 8 R %.r       ",
"    x D ! M , $ & z e 9 q p m C g 3 6                             a p k q 1 = > # O % , M / D x     ",
"  n ` -.-.B y 3 : a 3 q H m e R g 2 3                             r 0 k q 9 1 & O $ 6 y B ..-.' n   ",
"  2 y l m l u , O 3 4 6 m c y ( g 2 4                             4 2 k w 7 > % $ O < y x M c t >   ",
"    d M { ~ c 5 . : 6 6 p N X.W 3 , 2                           a w < 6 k w * & # o p v ~ ..M q     ",
"    d 2 M g 1 6 . > 3 0 9 &.x X &                             C ! H t a 0 q = & O . d 5 g M 2 8     ",
"    d 2 i 0 0 9 . , 6 p c E @ $                             A *.( g 6 H I q , & O . a 0 9 y 2 q     ",
"  e k x M l a t $ ; a t p - # ;                             R K A 6 q v / k - ; O % 9 p v D m l y   ",
"  a H ( -.Y g 6 , : d 9 l $ &                             c X.{ M > c f v F 2 - O ; 7 j Y -.( H f   ",
"    : 9 w 2 = O O 3 6 7 k & -                             C ! ! Z ; t N m d , & O . O = 2 w 9 :     ",
"      S ~ C 6 . + 9 2 a p % ;                             n k N r O + = g a : & # . O 6 B ( D       ",
"      H t.R 7 O # 9 , f a & ;                             c k p ; # - . & r 2 $ # o @ 7 R s.H       ",
"      A ..I 5 O % t q p y ; :                             a d k - ; p q q 9 3 ; # O # 5 I 8.S       ",
"      A Y m 2 # % y w , y , ; >                           y q y 1 . < r y > & ; % @ $ 2 m R A       ",
"      B I c 6 # $ r 6 9 s p 3 9                           a 0 6 > O . : 9 2 ; * $ # $ 6 c P B       ",
"      C ~ B 6 # # 0 1 6 : c y p w                         w 0 3 > O . * r 5 # % # @ $ 6 N ( A       ",
"      n ( B 5 O $ q ; t 3 6 k k l                           4 : - o # , 0 ; * $ $ O # 5 B -.M       ",
"      n { B 2 O * 6 1 = a 0 t A B m p                         & & O & < 5 , % $ - $ O 2 B :.m       ",
"      l / M , O O : w t % t 6 v y 6 2                           ; & % 0 9 $ & ; X . O , m %.c       ",
"      a Y g - . O ; < g 7 6 z y : % %                             2 , 6 2 ; , % . . O - g ! d       ",
"    5 c R g - O O ; 9 9 9 > 0 M * * *                             9 9 , 6 % ; = . O + - d ! v 5     ",
"    3 K ;.A > O # < 6 2 w 9 < r - * %                             9 8 2 ; = - & # + O > A 2.I 3     ",
"  p r 8 a 0 < , & , 5 ; < t 2 w 1 1 6                           q a 0 , - * O $ # * , < 0 f 9 r p   ",
"  C { H B H F B 9 - h r # , 2 t 0 6 0                           g H V 3 - O $ : & q B F H C H { C   ",
"  n A A H z p p 9 , g k p t p m 2 $ %                           2 5 6 t 5 > 3 , * 8 p p c H A A n   ",
"  k V Y ~ b w q < = t B B h c D ; # #                             1 , 6 w 4 w ; % 1 q w n R I V k   ",
"  f N M N d 9 3 - # 7 p a c D c ; # $                             2 2 > w w 1 $ O ; 3 9 d m m B f   ",
"  9 d a p 0 < ; # # , 9 w q t t - @ $                             < , , 1 > ; O o # ; < 0 p a d 9   ",
"  6 y w 9 3 , , ; ; ; 1 3 4 w g * # #                             , : 5 2 - % # : ; , , 3 8 w y 6   ",
"    9 6 6 3 2 2         > , 9 p ; O $                             6 2 > > & &       2 2 3 9 6 9     ",
"                            = < - + $                           > 6 3 - * &                         ",
"                                # @                               < , * %                           ",
"                                                                                                    "
};
