/* XPM */
static char *_42c394d708944d9a9969a89a6272900hZSV6rEQMLciHKec[] = {
/* columns rows colors chars-per-pixel */
"50 50 136 2 ",
"   c None",
".  c #030303",
"X  c #070708",
"o  c #070808",
"O  c #0B0B0C",
"+  c #0E0F10",
"@  c #0F1011",
"#  c #131315",
"$  c #161718",
"%  c #17181A",
"&  c #1A1B1D",
"*  c #1D1F21",
"=  c #1F2023",
"-  c #212325",
";  c #252629",
":  c #26282C",
">  c #292B2E",
",  c #2C2E32",
"<  c #2E3034",
"1  c #303236",
"2  c #33353A",
"3  c #36393D",
"4  c #383B3F",
"5  c #373A40",
"6  c #3B3D43",
"7  c #3D4146",
"8  c #3F4248",
"9  c #404347",
"0  c #42454B",
"q  c #45484F",
"w  c #474A51",
"e  c #494D53",
"r  c #4D5057",
"t  c #4E5259",
"y  c #52565D",
"u  c #54585F",
"i  c #525660",
"p  c #565A62",
"a  c #595D65",
"s  c #5B6067",
"d  c #5D626A",
"f  c #61656D",
"g  c #636770",
"h  c #656A73",
"j  c #6A6E76",
"k  c #676D78",
"l  c #6A6F78",
"z  c #6D7177",
"x  c #6D727B",
"c  c #71757D",
"v  c #73787F",
"b  c #6F7580",
"n  c #717680",
"m  c #757A83",
"M  c #797D86",
"N  c #7A7F89",
"B  c #7D828C",
"V  c #7F8591",
"C  c #81868E",
"Z  c #828791",
"A  c #858A93",
"S  c #898D95",
"D  c #878C98",
"F  c #8A8F98",
"G  c #8C9097",
"H  c #8D929B",
"J  c #91959D",
"K  c #94989F",
"L  c #8F95A0",
"P  c #9297A0",
"I  c #959AA3",
"U  c #9A9EA5",
"Y  c #979DA8",
"T  c #999FA9",
"R  c #9CA0A7",
"E  c #9DA2AB",
"W  c #A1A5AD",
"Q  c #A4A8AF",
"!  c #A1A7B1",
"~  c #A5AAB3",
"^  c #AAAEB6",
"/  c #ADB1B6",
"(  c #AEB3BA",
")  c #B0B4BA",
"_  c #B3B6BB",
"`  c #B2B5BC",
"'  c #B1B6BD",
"]  c #B3B7BD",
"[  c #B2B6BE",
"{  c #B4B7BD",
"}  c #B4B7BE",
"|  c #B2B6BD",
" . c #B4B8BE",
".. c #B4B8BF",
"X. c #B2B7C0",
"o. c #B4B9C1",
"O. c #B6BAC2",
"+. c #B7BBC2",
"@. c #B6BBC4",
"#. c #B5B9C1",
"$. c #B9BCC1",
"%. c #B8BCC3",
"&. c #BABEC4",
"*. c #BABEC5",
"=. c #B9BEC6",
"-. c #BABFC7",
";. c #B9BCC2",
":. c #BDC1C7",
">. c #BCC1C7",
",. c #C2C5CB",
"<. c #C4C8CE",
"1. c #C6C9CF",
"2. c #C6CAD0",
"3. c #C7CBD0",
"4. c #C6CAD0",
"5. c #C8CBD1",
"6. c #C8CCD2",
"7. c #CACDD3",
"8. c #CBCED5",
"9. c #CACCD2",
"0. c #CDD1D6",
"q. c #CED2D8",
"w. c #CFD2D8",
"e. c #D0D2D5",
"r. c #D4D7DD",
"t. c #D2D5DA",
"y. c #DBDDE2",
"u. c #DDE0E3",
"i. c #DDE0E4",
"p. c #DEE1E6",
"a. c #E3E5E7",
"s. c #E2E3E6",
"d. c #E3E6E8",
"f. c #EAECEF",
"g. c #F2F3F4",
"h. c white",
/* pixels */
"                                                                                                    ",
"                                                                                                    ",
"                                        a -.T ~ -.-.^ ! -.a                                         ",
"                                        w s y B ^ ^ B s s w                                         ",
"                                y s H B q s 6 9 A A 9 6 s q B I d y                                 ",
"                            p C @.k E q.a l p 2 y y 2 p x a 8.%.n #.C p                             ",
"                        t N ` 5.h.:.k H w A s e w w e f A w J k ` h.2.` S y                         ",
"                  l q s ~ ` d.u.^ l - # > M t p n n p t M > $ # s ^ u.a.-.~ s 0 c                   ",
"                _ 7.x e ~ q.U i = # = & % + # & = = - % O % & - # = i U 7.~ e x 0.%.                ",
"              ` p.C h c q t : # & ; % * 0 z J G q q J H p 3 & % - & # : e q c h M r.{               ",
"            ~ H I C y Z u . # % # & 0 B ! #.p.E h h E y.#.W N w ; $ % # . u Z y C U H ~             ",
"          q h p 7 0 l n > o O - a Z ! W U ( / H B B H / _ U W ~ F f ; O O > n l 0 6 p h q           ",
"          s e e M l f , . # q H ~ ^ E a y l a / I I / a l y s U ~ ! H w # . , f l M e w g           ",
"          E 2.U 5 y & o + p Y I n x f , ; ; x  .^ ^ { h : ; , s x n I Y s O o & u 8 U 1.~           ",
"        l E t.<., O O # h I H s a : = 2 2 p k ^ U U / k p 2 2 - : a s L P k # O o : 1.t.T M         ",
"        H #.f.c % # . y T P w : > ; 2 w a n F ,.I I ,.U x a w 5 ; > : w H T q . # % c f.{ T         ",
"      y B 5.%.2 # O # n ! z 6 t s C a y x U I Q S S W S R x p w B s t 6 y W n # O # 1 %.1.D y       ",
"      e E W 0 O # o 6 L M d x t 3 3 t f  .c 3 I A A I 5 c  .f p 5 3 t x h B H 0 O # O 8 E :.r       ",
"    z S ^ M , % O O l E a 6 < 6 p 2 6 y f l y ~ F F ~ p l f t w 6 y 6 , 1 a E x O o % , M ( S z     ",
"  n X.,.,.B y 6 % # c A e # 2 2 h S B p , y B ( B B ( V y , p B S h 2 2 % e A c # # 6 y B %.,.o.n   ",
"  2 y l m j u , o - 3 t 8 % 3 1 0 v x p f S ~ A p p Z E F f p x c 0 1 3 - 9 t 3 - O < y z M x t >   ",
"    s M #.^ x 5 . = 2 6 , - 3 3 2 w u H I m x x A S c c m I H p w 2 3 3 > < 6 2 = . p c ^ %.M w     ",
"    s 2 M f 1 6 . % 3 6 , & > a 9 = S E 7 h I 1.g.g.1.U h 7 U ~ < 7 a > - , 6 3 % . s 5 f M 2 8     ",
"    s 2 i q q 0 . # , 7 , # y a > s x 6 A E U a.g.g.s.J E A 6 l f > a y & , 7 , # . a q 0 y 2 w     ",
"  e h z M j a t % # - 7 2 t f ; q d , p 7.t.%.Q e.8.~ %.t.<.a - s w - f d 3 6 ; # $ 0 p c S m l y   ",
"  a H ` ,.U f 6 , # - 6 y n < = f l ; 3 e H ,.<.F S 7.7.J 0 3 - l f = < n u 6 ; # ; 7 g U ,.` H d   ",
"    : 0 e 2 = O o o 0 w 0 6 * 9 a q - t 4 * 2 K W W U 0 ; 6 y = q a 9 & > 0 w 0 X . O = 2 e 0 :     ",
"      A ^ C 6 o . @ s r 3 : & h l 4 - f H x a l M M x a c H f - 3 l h & & 2 t s + . O 6 B ` S       ",
"      H t.E 7 @ . # f e > @ 6 a y p ; > y c H A 8 7 A P x y , * y y a 6 & > e g # . @ 7 E s.H       ",
"      Z %.U 5 # o & l y : 7 y < , h 3 * & > h a s s a d > & - , d , < y t , y l % . # 5 I 5.A       ",
"      Z T m 2 # O - n a 0 w * 1 3 a s ; % 1 e h H F h e 2 % : a a 3 1 & 0 0 a n = o # 2 m E Z       ",
"      B I x 6 # # = k p 0 ; : q & * p a ; < 7 p m m p 0 < ; p s ; % q > % 0 p k = O # 6 x P B       ",
"      C ^ B 6 $ O % h t , . 7 e 1 = & w a y w 1 0 0 2 e y a w & = 1 e 7 O , t h $ o $ 6 N ` Z       ",
"      n ` B 5 # . # h e < o + 6 e y y 2 ; y P C , , C P y ; 2 y y w 6 O o < e h # . # 5 B ,.M       ",
"      n #.B 2 O % 6 6 2 8 0 < > # # > y a 1 > k 2 2 l 2 1 a y 1 # # > < 6 7 2 6 6 & O 2 B 1.m       ",
"      l ( M , O . , 0 : ; 2 0 l y & 2 1 0 B a e 6 7 w r B 0 1 3 = y l 0 3 ; : 9 1 o O , m >.x       ",
"      a T f - o . > 6 - : < 6 2 6 0 2 2 - 2 q y 6 6 y 0 2 - 2 : 0 6 2 6 < ; - 6 , o o - f ~ s       ",
"    5 x R f - O . : 1 ; 1 6 < > 6 0 e 2 ; 1 7 6 w w 6 6 1 ; 2 0 0 6 > < 7 2 - < > O O - s ~ c 5     ",
"    3 J <.Z > O + > , , 7 # - > = # < 3 ; 8 7 h p p h 6 9 ; 2 2 # = > - # 6 , , , # O > Z 2.I 3     ",
"  p r 8 a q < > - : ; < p w 0 2 o - 2 2 q p c M s s M M u q 2 3 ; o 2 0 q p < ; ; * , < q d 0 r p   ",
"  C #.H B H S B r * = q y s h p t y y t p C M q m m 0 x C p r y y t p h f y q - & w B S H C H #.C   ",
"  n Z A H l p p w - 1 h x g l x x x x x M h t y a a y y h M x c x x x l h x h 1 * 8 p p x H Z Z n   ",
"  h V U ^ b e w 2 * < q 6 7 a e 9 p w 0 y 8 y x y y x y 8 y 0 q p 0 e a 8 6 q < & < w e n E I V h   ",
"  d N M N s 9 3 ; # ; 2 < < 6 6 5 6 2 6 8 a 9 e 0 0 e 0 a 8 6 2 4 6 6 6 , < 2 ; O - 3 9 s m m B d   ",
"  0 s a p q < - # o % - = * - > > ; : - ; 2 : > : : > > 2 ; - ; ; > > - * = - & o # - < q p a s 0   ",
"  6 y e 9 3 , , : -                                                             - : > , 3 8 e y 6   ",
"    0 6 6 3 2 2                                                                     2 2 3 9 6 0     ",
"                                                                                                    ",
"                                                                                                    ",
"                                                                                                    "
};
