/* XPM */
static char *result[] = {
/* columns rows colors chars-per-pixel */
"50 50 186 2 ",
"   c #452C32",
".  c #5B3035",
"X  c #643437",
"o  c #6F393A",
"O  c #653C38",
"+  c #723A3A",
"@  c #35463E",
"#  c #4B403D",
"$  c #7B413E",
"%  c #015C44",
"&  c #0B5F47",
"*  c #185640",
"=  c #145B45",
"-  c #1B5E46",
";  c #3D5F49",
":  c #016246",
">  c #016349",
",  c #0C684E",
"<  c #096548",
"1  c #14634A",
"2  c #1C644B",
"3  c #15694E",
"4  c #1C694F",
"5  c #186047",
"6  c #1E6D52",
"7  c #1F7054",
"8  c #21644B",
"9  c #236D4D",
"0  c #2C674E",
"q  c #24704D",
"w  c #216E53",
"e  c #217156",
"r  c #217658",
"t  c #6B4643",
"y  c #44664C",
"u  c #5A684D",
"i  c #4A6C52",
"p  c #61664D",
"a  c #7C654E",
"s  c #7B6B51",
"d  c #747B56",
"f  c #941B32",
"g  c #9C1C34",
"h  c #A51D36",
"j  c #AB1E37",
"k  c #AD1F38",
"l  c #AE1136",
"z  c #B01937",
"x  c #BD1439",
"c  c #B11F39",
"v  c #BE1C3B",
"b  c #B71437",
"n  c #872836",
"m  c #8A2437",
"M  c #9F2A3C",
"N  c #A2283C",
"B  c #AF2A3C",
"V  c #AB2038",
"C  c #B6203B",
"Z  c #BB213C",
"A  c #B72D3D",
"S  c #C60A3A",
"D  c #D80C3C",
"F  c #C4173A",
"G  c #CB193D",
"H  c #C5153A",
"J  c #D11A3B",
"K  c #E30D3F",
"L  c #F00F3D",
"P  c #C2223D",
"I  c #CA243E",
"U  c #C62B3F",
"Y  c #D80E40",
"T  c #DC1E40",
"R  c #E50C43",
"E  c #EF0F46",
"W  c #F00B46",
"Q  c #EE1446",
"!  c #ED1B45",
"~  c #E21042",
"^  c #F31444",
"/  c #FF1042",
"(  c #F11C47",
")  c #F11748",
"_  c #F51D48",
"`  c #FB1D4A",
"'  c #FC174A",
"]  c #C62240",
"[  c #CC2441",
"{  c #D42543",
"}  c #DB2643",
"|  c #DD2842",
" . c #D62943",
".. c #C23041",
"X. c #C23A42",
"o. c #EA2344",
"O. c #E52945",
"+. c #EA2A46",
"@. c #EC2949",
"#. c #E72547",
"$. c #F22547",
"%. c #FF2247",
"&. c #F22C47",
"*. c #F42448",
"=. c #FD254A",
"-. c #F62C48",
";. c #FC2D4A",
":. c #F82B47",
">. c #F33447",
",. c #F53648",
"<. c #FE314B",
"1. c #F43B47",
"2. c #FF2451",
"3. c #FF2A53",
"4. c #FF3352",
"5. c #FF3759",
"6. c #FF3A53",
"7. c #8C4A46",
"8. c #814440",
"9. c #944B46",
"0. c #9A4D4A",
"q. c #975147",
"w. c #A54845",
"e. c #B94646",
"r. c #A4544C",
"t. c #A25F4D",
"y. c #B15E50",
"u. c #856F54",
"i. c #966550",
"p. c #B1624F",
"a. c #AE6D54",
"s. c #B86454",
"d. c #AC7257",
"f. c #B67758",
"g. c #C34B47",
"h. c #CD524C",
"j. c #D7544F",
"k. c #C55E53",
"l. c #F44047",
"z. c #F54548",
"x. c #FD444B",
"c. c #F64A48",
"v. c #FC4C4A",
"b. c #F65548",
"n. c #F75D48",
"m. c #FE5C4B",
"M. c #FF534A",
"N. c #FF4957",
"B. c #FF5256",
"V. c #FF5B52",
"C. c #C86150",
"Z. c #C46E55",
"A. c #C56452",
"S. c #D76B59",
"D. c #CE735B",
"F. c #C27257",
"G. c #DD765B",
"H. c #D37359",
"J. c #F76348",
"K. c #F96448",
"L. c #F76A48",
"P. c #F96B49",
"I. c #FB734A",
"U. c #FB7B49",
"Y. c #E66F5B",
"T. c #FF7552",
"R. c #D66F61",
"E. c #EC7E63",
"W. c #F87C63",
"Q. c #788059",
"!. c #BB835D",
"~. c #FD8749",
"^. c #FD8B49",
"/. c #FD944A",
"(. c #FE9B4A",
"). c #FF8E50",
"_. c #FF9350",
"`. c #FFA54A",
"'. c #FFAB4A",
"]. c #FFB34A",
"[. c #FFBC4A",
"{. c #F8826A",
"}. c #FFC24B",
"|. c #FFCB4B",
" X c #FFD24B",
".X c None",
/* pixels */
".X.X.X.X.X.X.X.X.X.X.X.X.X.X.X.X.X.X.X.X.X.X.X.X.X.X.X.X.X.X.X.X.X.X.X.X.X.X- 6 r 7 - - .X.X.X.X.X.X",
".X.X.X.X.X.X.X.X.X.X.X.X.X.X.X.X.X.X.X.X.X.X.X.X.X.X.X.X.X.X.X.X.X.X.X.X.X.X- 6 e 6 - - .X.X.X.X.X.X",
".X.X.X.X.X.X.X.X.X.X.X.X.X.X.X.X.X.X.X.X.X.X.X.X.X.X.X.X.X.X.X.X.X.X.X.X.X- - 9 e w - - .X.X.X.X.X.X",
".X.X.X.X.X.X.X.X.X.X.X.X.X.X.X.X.X.X.X.X.X.X.X.X.X.X.X.X.X.X.X.X.X.X.X.X- 5 - 4 6 w - - .X.X.X.X.X.X",
".X.X.X.X.X.X.X.X.X.X.X.X.X.X.X.X.X.X.X.X.X.X.X.X.X.X.X.X.X.X.X.X.X.X.X- - 2 2 2 6 6 - = .X.X.X.X.X.X",
".X.X.X.X.X.X.X.X.X.X.X.X.X.X.X.X.X.X.X.X.X.X.X.X.X.X.X.X.X.X.X.X.X.X1 5 e w 2 2 3 1 = & .X.X.X.X.X.X",
".X.X.X.X.X.X.X.X.X.X.X.X.X.X.X.X.X.X.X.X.X.X.X.X.X.X.X.X*..X.X.X.X.X> 1 r e 8 2 3 , % % .X.X.X.X.X.X",
".X.X.X.X.X.X.X.X.X.X.X.X.Xf V Z O.-.=.*.) ) ) ) ( Q ( ( $.:.;..X.X.X.X= w w 2 2 1 , % % .X.X.X.X.X.X",
".X.X.X.X.X.X.X.X.X.X.X.Xf N [ @.=.3.;.<.<.<.;.3.;.<.4.4.5.3.=..X.X.X.X< 3 3 1 1 2 9 - 8 .X.X.X.X.X.X",
".X.X.X.X.X.X.X.X.X.X.X.XV ] $.2.3.3.6.N.V.V.V.V.V.V.V.B.N.3.%./ .X.X* % > > : = 0 i u s .X.X.X.X.X.X",
".X.X.X.X.X.X.X.X.X.Xf h Z O.2.` ' 2.x.T.)._._.).)._.).T.B.<._ L F n @ % : > % < y u.d.F.D.H..X.X.X.X",
".X.X.X.X.X.X.X.X.Xf h P O.;.=.%.' =.m._.].[.].].].[.].).m.<.^ D v n   * > > : 5 p a.G.E.{.Z.Z..X.X.X",
".X.X.X.X.X.X.X.X.Xj Z @.=.3.;.=.<.v.I.`.}.|.}.}.|.|.[.(.m.;.^ K H N t ; q q 9 y a s.Y.W.{.D.p..X.X.X",
".X.X.X.X.X.X.Xh C Z } ;.=.=.<.x.K.U./.'.[.[.[.[.}.|.[.(.m.;.~ D x N 7.s d d d u.i.y.k.S.R.s.q..X.X.X",
".X.X.X.X.X.Xg h Z | -.3.=.=.<.m.^.`.].].].].].].[.}.]./.m.:.~ S l N w.a.!.!.!.a.t.0.9.0.r.7.8..X.X.X",
".X.X.X.X.X.Xg k | -.;.=.` ` 1.P.`.}.}.[.'.`.'.].].[.'.^.M.$.R S b A e.C.H.G.S.C.r.t X X o o + .X.X.X",
".X.X.X.X.X.Xg c O.;.<.=.` _ ,.L.`.}.|.].'.`.'.'.[.[.].~.c._ K D G U X.g.h.j.j.e.w.$ .X  . X .X.X.X.X",
".X.X.X.X.X.Xg k { &.;.=.` _ ,.L.(.[.}.].'.`.`.'.].[.'.~.c.( W ^ o.| U A A ..U B M .X.X.X.X.X.X.X.X.X",
".X.X.X.X.X.Xg h { @.;.=.%._ 1.J.(.].[.].'.'.`.'.].[.'.^.b.-.` %.=.+.J c z v v j z .X.X.X.X.X.X.X.X.X",
".X.X.X.X.X.Xg h [ O.-.=.` _ >.J./.].[.].'.`.'.'.'.[.'./.I.b.z.<.;.%.} G x G G F J .X.X.X.X.X.X.X.X.X",
".X.X.X.X.X.Xg h [ O.-.=.` _ >.K./.].[.'.'.'.'.'.`.].'.`.(.^.P.v.;._ ! J o.J o.O.o.:.=..X.X.X.X.X.X.X",
".X.X.X.X.X.Xg h [ O.-.=.` *.>.K.(.].[.].'.'.`.'.`.'.'.].[.]./.J.>.( ! $.@.$.@.=.;.<.;.;..X.X.X.X.X.X",
".X.X.X.X.X.Xg h [ O.-.=.` ( >.L.(.[.}.].'.`.`.`.`.`.'.[.|.|.`.P.>.( _ :.;.;.;.<.5.5.4.-..X.X.X.X.X.X",
".X.X.X.X.X.Xg h [ O.-.=.` ( ,.P.'.}.}.[.'.`.'.`.`.`.'.[. X X'.L.>.^ _ %.;.;.;.<.4.5.;.-..X.X.X.X.X.X",
".X.X.X.X.X.Xg h [ O.-.=.` ( ,.L.`.[.}.].'.'.`.'.`.'.'.[.|.}.`.J.>.! ( *.-.;.-.<.4.4.:.&..X.X.X.X.X.X",
".X.X.X.X.X.Xg h [ O.-.=.=._ >.n.~.`.[.[.].'.].].].].].].[.`.^.b.&.( ( :.&.&.;.<.<.4.<.&..X.X.X.X.X.X",
".X.X.X.X.X.Xg h [ O.-.:.*.*.&.z.J.U.(.'.[.}.[.[.[.}.[.'./.U.n.l.&.$.$.@.&.&.&.;.4.4.;.<..X.X.X.X.X.X",
".X.X.X.X.X.Xg h [ +.-.;.=.-.:.$.>.z.P.`.}.|.}.}.}.|.[.(.L.z.&.&.$.&.&.&.@.&.&.;.4.4.<.;..X.X.X.X.X.X",
".X.X.X.X.X.Xg h [ +.;.;.<.&.$.! Q $.b./.'.[.[.'.].[.`.^.c.$.Q ( $.&.&.&.&.&.;.<.<.4.&.&..X.X.X.X.X.X",
".X.X.X.X.X.Xg h [ +.<.<.<.:.$.^ Q ! l.P.^./.^.~.^./.^.L.1.( E ! &.&.&.&.&.;.;.;.<.;.|  ..X.X.X.X.X.X",
".X.X.X.X.X.Xg h [ &.<.<.<.:.&.$.! $.>.z.b.b.b.b.b.b.b.l.>.( ( $.&.@.&.&.-.<.<.;.-.O.Z C .X.X.X.X.X.X",
".X.X.X.X.X.Xg h I +.:.<.<.;.&.&.$.$.&.$.@.>.&.&.&.&.&.&.$.&.$.&.&.>.&.-.;.;.;.;.#.I N g .X.X.X.X.X.X",
".X.X.X.X.X.Xg h [ } +.@.&.:.<.&.&.&.$.( ! ( ( ( ( ^ ( $.$.&.&.&.&.&.;.>.;.:.>.+.I I g f .X.X.X.X.X.X",
".X.X.X.X.X.Xh j Z [ [ { +.<.<.<.>.&.$.$.( ( ! ( ( ( ( ( $.&.>.&.&.&.;.;.<.+.I I I Z g g .X.X.X.X.X.X",
".X.X.X.X.X.Xk j P Z C P I &.<.<.;.&.&.$.$.$.$.@.$.$.$.&.&.>.&.&.>.:.<.;.&.J P c Z Z j h .X.X.X.X.X.X",
".X.X.X.X.X.Xj k ] Z k c I O.&.;.;.:.:.:.:.:.:.:.-.-.-.-.:.:.&.:.:.:.;.&.O.I j h c P k k .X.X.X.X.X.X",
".X.X.X.X.X.Xk C { [ Z C I I I >.:.<.<.;.<.:.-.;.;.;.-.<.&.<.;.<.;.:.&.I I P h h Z { C k .X.X.X.X.X.X",
".X.X.X.X.X.Xk Z { { P Z C C U J &.<.<.;.:.<.;.;.-.;.;.;.;.;.<.<.<.&.I P V V h c ] { Z k .X.X.X.X.X.X",
".X.X.X.X.X.Xk k ] v C h g g C I +.<.<.&.&.&.&.&.&.&.&.&.&.:.;.<.:.@.I V h h j C ] Z j k .X.X.X.X.X.X",
".X.X.X.X.X.X.Xk k k j h g g V Z I O.O.O.| | | | | | | | I +.| O.O.I Z V h j Z Z k k k .X.X.X.X.X.X.X",
".X.X.X.X.X.X.X.X.X.X.X.Xh h c Z ] P P P P P P P P P P P Z P P P P Z c h k ] { Z k .X.X.X.X.X.X.X.X.X",
".X.X.X.X.X.X.X.X.X.X.X.Xk h Z ] Z c C k C k k k k k k V c c c k C k k k v P ] k k .X.X.X.X.X.X.X.X.X",
".X.X.X.X.X.X.X.X.X.X.X.X.Xk [ { Z c k k j V k k k k k k k k k k k c Z Z Z C k k .X.X.X.X.X.X.X.X.X.X",
".X.X.X.X.X.X.X.X.X.X.X.Xc k { } [ Z C Z Z v Z Z Z v Z Z v Z Z Z Z P { [ Z V k .X.X.X.X.X.X.X.X.X.X.X",
".X.X.X.X.X.X.X.X.X.X.X.Xk k [ { P Z c C C C C C C C C C C C C C Z P [ [ k k .X.X.X.X.X.X.X.X.X.X.X.X",
".X.X.X.X.X.X.X.X.X.X.X.X.Xk k k k j k k V h V k V V k k h k V V k k k k k .X.X.X.X.X.X.X.X.X.X.X.X.X",
".X.X.X.X.X.X.X.X.X.X.X.X.X.XV k V j k k k V V k k V V h k V k k k k k k .X.X.X.X.X.X.X.X.X.X.X.X.X.X",
".X.X.X.X.X.X.X.X.X.X.X.X.X.X.X.X.X.X.X.X.X.X.X.X.X.X.X.X.X.X.X.X.X.X.X.X.X.X.X.X.X.X.X.X.X.X.X.X.X.X",
".X.X.X.X.X.X.X.X.X.X.X.X.X.X.X.X.X.X.X.X.X.X.X.X.X.X.X.X.X.X.X.X.X.X.X.X.X.X.X.X.X.X.X.X.X.X.X.X.X.X",
".X.X.X.X.X.X.X.X.X.X.X.X.X.X.X.X.X.X.X.X.X.X.X.X.X.X.X.X.X.X.X.X.X.X.X.X.X.X.X.X.X.X.X.X.X.X.X.X.X.X"
};
