/* XPM */
static char *_2c1679fc0c243d0f9fc8c3acafc5479I7LAY9s0SZkAIz7d[] = {
/* columns rows colors chars-per-pixel */
"50 50 148 2 ",
"   c None",
".  c #030303",
"X  c #070708",
"o  c #070808",
"O  c #0B0B0C",
"+  c #0E0F10",
"@  c #0F1011",
"#  c #131315",
"$  c #161718",
"%  c #17181A",
"&  c #1A1B1D",
"*  c #2A1A1D",
"=  c #1D1F21",
"-  c #1F2123",
";  c #212325",
":  c #242629",
">  c #26282C",
",  c #292B2E",
"<  c #342C2F",
"1  c #2C2E32",
"2  c #302E32",
"3  c #2E3034",
"4  c #2D3438",
"5  c #303236",
"6  c #33353A",
"7  c #36393D",
"8  c #393A3F",
"9  c #452B30",
"0  c #44383E",
"q  c #373A40",
"w  c #3B3D43",
"e  c #3D4046",
"r  c #3F4248",
"t  c #404347",
"y  c #42454B",
"u  c #45484F",
"i  c #474A51",
"p  c #494D53",
"a  c #4D5057",
"s  c #4E5259",
"d  c #52565D",
"f  c #54585F",
"g  c #5C5359",
"h  c #7F464F",
"j  c #72414B",
"k  c #774F58",
"l  c #655056",
"z  c #525660",
"x  c #565A62",
"c  c #595D65",
"v  c #5B6067",
"b  c #5D626A",
"n  c #61656D",
"m  c #6C656E",
"M  c #70626A",
"N  c #636770",
"B  c #656A73",
"V  c #696E76",
"C  c #676D78",
"Z  c #6A6F78",
"A  c #716973",
"S  c #6D7177",
"D  c #6D727B",
"F  c #71757E",
"G  c #73787F",
"H  c #93313C",
"J  c #A12736",
"K  c #CF001B",
"L  c #D80013",
"P  c #CC0B27",
"I  c #DA1730",
"U  c #E72E47",
"Y  c #EC3C55",
"T  c #804D56",
"R  c #AF5D69",
"E  c #A4616B",
"W  c #AC616A",
"Q  c #E7455A",
"!  c #6F7580",
"~  c #717680",
"^  c #757A83",
"/  c #797D86",
"(  c #7A7F89",
")  c #857C83",
"_  c #C67D87",
"`  c #7D828C",
"'  c #7F8591",
"]  c #81868E",
"[  c #9B838B",
"{  c #828791",
"}  c #858A93",
"|  c #8A8E96",
" . c #878C98",
".. c #8A8F98",
"X. c #8C9097",
"o. c #8D929B",
"O. c #91959D",
"+. c #B48088",
"@. c #B9828C",
"#. c #BC8890",
"$. c #8F95A0",
"%. c #9297A1",
"&. c #959AA3",
"*. c #999EA5",
"=. c #979DA8",
"-. c #999FA9",
";. c #9CA0A7",
":. c #9DA2AB",
">. c #A1A5AD",
",. c #A5A8AF",
"<. c #A4A0A6",
"1. c #A1A7B1",
"2. c #A5AAB3",
"3. c #AAAEB6",
"4. c #ADB1B6",
"5. c #AEB3BA",
"6. c #B2B5BB",
"7. c #B2B6BD",
"8. c #B4B7BE",
"9. c #B2B6BD",
"0. c #B5B8BF",
"q. c #B9B8BE",
"w. c #C8848C",
"e. c #DFADB2",
"r. c #E6B2B7",
"t. c #B2B7C0",
"y. c #B6BAC2",
"u. c #B5BAC1",
"i. c #BABEC5",
"p. c #B8BCC2",
"a. c #CABDC3",
"s. c #D0BFC4",
"d. c #BCC1C7",
"f. c #C2C6CB",
"g. c #C6C9CF",
"h. c #C7CBD0",
"j. c #C6CBD1",
"k. c #CACDD2",
"l. c #CFD2D6",
"z. c #CFD2D8",
"x. c #D2D5DA",
"c. c #DBDDE2",
"v. c #DEE0E4",
"b. c #E2E5E7",
"n. c #EAECEF",
"m. c #E3E6E8",
"M. c #F2F3F4",
"N. c white",
/* pixels */
"                                                                                                    ",
"                                                                                                    ",
"                                        c i.-.2.i.i.3.1.i.c                                         ",
"                                        i b d ` 3.3.` v v i                                         ",
"                                d b o.` u b w t } } t w b u ` &.b d                                 ",
"                            x ] y.C :.z.c Z x 6 d d 6 x D c k.p.~ u.] x                             ",
"                        s ( 7.h.N.d.C o.i } b p i i p n } i O.C 7.N.h.7.| d                         ",
"                  B y b 2.7.m.v.3.Z ; # , / s x ~ ~ x s / , $ # b 3.v.m.i.2.b y D                   ",
"                6.k.D p 2.z.*.z - # - & % + # & - - ; % O % & ; # - z *.k.2.p D l.p.                ",
"              7.v.] B F u s > # & : % = y S O.X.u u O.o.x 7 & % ; & # > p u F B / x.8.              ",
"            2.o.&.] d } f . # % # & y ` 1.u.v.:.B B :.c.u.>.( i : $ % # . f } d ] *.o.2.            ",
"          u B x e y Z ~ , o O ; c { 1.>.*.5.4.o.` ` o.4.6.*.>.2...n : O O , ~ Z y w x B u           ",
"          b p p / Z n 1 . # u o.2.3.:.c d Z c 4.&.&.4.c Z d v *.2.1.X.i # . 1 n Z / p i N           ",
"          :.h.*.q d & o + x =.&.~ D n 1 : : D 8.3.3.8.B > : 1 b D ~ &.=.b O o & f r *.g.2.          ",
"        Z :.x.f.1 O O # B &.o.b c > - 6 6 x C 3.*.*.4.C x 6 6 ; > c b $.%.C # O o > g.x.-./         ",
"        o.u.n.F % # . d -.%.i > , : 6 i c ~ ..f.&.&.f.*.D c i q : , > i X.-.u . # % F n.8.-.        ",
"      d ` h.p.6 # O # ~ 1.S w s b ] c d D *.&.,.| | >.| ;.D x i ` b s w d >.~ # O # 5 p.g. .d       ",
"      p :.>.y O # o w $./ b D s 7 7 s n 8.F 7 &.} } &.q F 8.n x q 7 s D N ` o.y O # O r :.d.a       ",
"    S | 3./ 1 % O O Z :.c w 3 w x 6 w d n Z d 2.....2.x Z n s i w d w 1 5 c :.D O o % 1 / 5.| S     ",
"  ~ t.f.f.` d w % # F } p # 6 6 B | ` x 1 d ` 5.` ` 5.' d 1 x ` | B 6 6 % p } F # # w d ` p.f.t.~   ",
"  6 d Z ^ V f 1 o ; 7 s r % 7 5 y G D x n | 2.} x x } :.| n x D F y 5 7 ; t s 7 ; O 3 d S / D s ,   ",
"    b / u.3.D q . - 6 w 1 ; 7 7 6 i f o.&.^ D D } } F F ^ &.o.x i 6 7 7 , 3 w 6 - . x F 3.p./ i     ",
"    b 6 / n 5 w . % 7 w 1 & , c t - | :.e B &.g.M.M.g.*.B e *.2.3 e c , ; 1 w 7 % . b q n / 6 r     ",
"    b 6 z u u y . # 1 e 1 # d c , b D w } :.*.m.M.M.v.O.:.} w Z n , c d & 1 e 1 # . c u y d 6 i     ",
"  p B S / V c s % # ; e 6 s n ; u b 1 x h.l.8.,.l.k.,.q.l.f.c ; v i ; n b 7 w ; # $ y x F | ^ Z d   ",
"  c X.7.f.*.n w 1 # ; w d ~ 3 - n Z ; 0 h _ e.a.X.| s.r.w.j 8 ; Z n - 3 ~ f w ; # : e N *.f.7.X.b   ",
"    > y p 6 - O o o y i y w = t c u - l J L P #.>.<.w.I K H g - u c t & , y i y X . O - 6 p y >     ",
"      } 3.] w o . @ b a 7 > & B Z 8 ; M _ Y U E / ) R U Q @.m - 7 Z B & & 6 s b + . O w ` 7.|       ",
"      X.x.:.e @ . # n p , @ w c d x ; < T W +.[ r y [ @.E k 2 = d d c w & , p N # . @ e :.b.o.      ",
"      { p.*.q # o & Z d > e d 3 1 B 7 = * 9 A c b v c m 9 * - 1 b 1 3 d s 1 d Z % . # q &.h.}       ",
"      { -.^ 6 # O ; ~ c y i = 5 7 c b : % 4 p N X...N i 4 % > c c 7 5 & y y c ~ - o # 6 ^ :.{       ",
"      ` &.D w # # - C x y : > u & = x c : 3 e x ^ ^ x y 3 : x b : % u , % y x C - O # w D %.`       ",
"      ] 3.` w $ O % B s 1 . e p 5 - & i c d i 5 y y 6 p d c i & - 5 p e O 1 s B $ o $ w ( 7.{       ",
"      ~ 7.` q # . # B p 3 o + w p d d 6 : d %.] 1 1 ] %.d : 6 d d i w O o 3 p B # . # q ` f./       ",
"      ~ u.` 6 O % w w 6 r y 3 , # # , d c 5 , C 6 6 Z 6 5 c d 5 # # , 3 w e 6 w w & O 6 ` g.^       ",
"      Z 5./ 1 O . 1 y > : 6 y Z d & 6 5 y ` c p w e i a ` y 5 7 - d Z y 7 : > t 5 o O 1 ^ d.D       ",
"      c -.n ; o . , w ; > 3 w 6 w y 6 6 ; 6 u d w w d y 6 ; 6 > y w 6 w 3 : ; w 1 o o ; n 2.b       ",
"    q D ;.n ; O . > 5 ; 5 w 3 , w y p 6 : 5 e w i i w w 5 : 6 y y w , 3 e 6 ; 3 , O O ; b 2.F q     ",
"    7 O.f.} , O + , 1 1 e # ; , - # 3 7 : r e B x x B w t : 6 6 # - , ; # w 1 1 1 # O , { h.&.7     ",
"  x a r c u 3 , ; > : 3 x i y 6 o ; 6 6 u x F / b b / / d u 6 7 : o 6 y y x 3 : : = 1 3 y b y a x   ",
"  ] u.o.` o.} ` a = - u d b B x s d d s x ] / u ^ ^ y D ] x a d d s x B n d u ; & i ` } o.] o.u.]   ",
"  ~ { } o.Z x x i ; 5 N D N Z D D D D D / B s d c c d d B / D F D D D Z B D N 5 = r x x D o.} } ~   ",
"  B ' *.3.! p i 6 = 3 u w e c p t x i y d r d D d d D d r d y u x y p c r w u 3 & 3 i p ~ :.&.' B   ",
"  b ( / ( b t 7 : # : 6 3 3 w w q w 6 w r c t p y y p y c r w 6 8 w w w 1 3 6 : O ; 7 t b ^ ^ ` b   ",
"  y v c x u 3 ; # o % ; - = ; , , : > ; : 6 > , > > , , 6 : ; : : , , ; = - ; & o # ; 3 u x c v y   ",
"  w d p t 7 1 1 > ;                                                             ; > , 1 7 r p d w   ",
"    y w w 7 6 6                                                                     6 6 7 t w y     ",
"                                                                                                    ",
"                                                                                                    ",
"                                                                                                    "
};
