/* XPM */
static char *_22c9aedbeab4d2eaa8b99f319a097b4UIwZI0OJowBddJau[] = {
/* columns rows colors chars-per-pixel */
"50 50 241 2 ",
"   c #050302",
".  c #0D0400",
"X  c #0C0B03",
"o  c #0E0E0B",
"O  c #050807",
"+  c #130100",
"@  c #1A0400",
"#  c #140901",
"$  c #1A0A01",
"%  c #1D0B0B",
"&  c #140A0C",
"*  c #0C120C",
"=  c #0B150E",
"-  c #12120C",
";  c #1B130D",
":  c #161608",
">  c #0E0E10",
",  c #150D13",
"<  c #0C1515",
"1  c #0D1B15",
"2  c #0D1719",
"3  c #0E1C1A",
"4  c #061D13",
"5  c #141514",
"6  c #131C16",
"7  c #191A15",
"8  c #12161B",
"9  c #141B1B",
"0  c #191A1B",
"q  c #1A1716",
"w  c #260A05",
"e  c #3D0800",
"r  c #241805",
"t  c #261606",
"y  c #251B14",
"u  c #221B1B",
"i  c #291519",
"p  c #311B1C",
"a  c #311308",
"s  c #0E231C",
"d  c #14221D",
"f  c #1B221A",
"g  c #262218",
"h  c #342316",
"j  c #0E1C20",
"k  c #141C22",
"l  c #1A1D22",
"z  c #131720",
"x  c #341E20",
"c  c #142123",
"v  c #1B2222",
"b  c #1E252B",
"n  c #222323",
"m  c #352725",
"M  c #4A2818",
"N  c #57331A",
"B  c #4A2A11",
"V  c #483626",
"C  c #5A3A28",
"Z  c #583A35",
"A  c #502625",
"S  c #662624",
"D  c #753334",
"F  c #5C4538",
"G  c #53412A",
"H  c #6E492D",
"J  c #7B4739",
"K  c #76583C",
"L  c #795939",
"P  c #765838",
"I  c #6A513D",
"U  c #744C48",
"Y  c #7B4B4B",
"T  c #6B5442",
"R  c #765756",
"E  c #6C4848",
"W  c #716251",
"Q  c #BF3130",
"!  c #BF2E29",
"~  c #C73839",
"^  c #DF3F3F",
"/  c #C53B2E",
"(  c #CA403E",
")  c #CF3E45",
"_  c #DE3A41",
"`  c #8B4143",
"'  c #964B4B",
"]  c #8D524A",
"[  c #94544D",
"{  c #875A55",
"}  c #98595E",
"|  c #B35E5B",
" . c #8D664F",
".. c #A86557",
"X. c #B76458",
"o. c #A47557",
"O. c #A4614E",
"+. c #9B756C",
"@. c #BE6C62",
"#. c #B56869",
"$. c #BB756C",
"%. c #A97578",
"&. c #AE706A",
"*. c #D84449",
"=. c #CA5041",
"-. c #D2584A",
";. c #CA4B42",
":. c #C46D5C",
">. c #C66B5B",
",. c #DF6153",
"<. c #C17753",
"1. c #C4725D",
"2. c #CC755D",
"3. c #CB7C5B",
"4. c #C37851",
"5. c #D57056",
"6. c #E36655",
"7. c #E17257",
"8. c #C66D62",
"9. c #CC6E65",
"0. c #CD6E6B",
"q. c #C0676B",
"w. c #D06F69",
"e. c #C57362",
"r. c #CB7464",
"t. c #CC7A65",
"y. c #C4756A",
"u. c #CD736B",
"i. c #C47A6C",
"p. c #CC7B6B",
"a. c #C17E64",
"s. c #D07466",
"d. c #D1746D",
"f. c #D27B6C",
"g. c #D47D68",
"h. c #C56D70",
"j. c #D36F71",
"k. c #CE7372",
"l. c #C77875",
"z. c #D17371",
"x. c #D27975",
"c. c #D47C7C",
"v. c #D77B77",
"b. c #E87765",
"n. c #F67C6F",
"m. c #BA855D",
"M. c #B98D69",
"N. c #AA9079",
"B. c #918672",
"V. c #CC805E",
"C. c #D0825E",
"Z. c #CA836A",
"A. c #D58365",
"S. c #D58B64",
"D. c #D3816A",
"F. c #DB8A6C",
"G. c #D48B6A",
"H. c #C89369",
"J. c #DA946B",
"K. c #CB8575",
"L. c #DA8672",
"P. c #DC8C73",
"I. c #D58678",
"U. c #DD9372",
"Y. c #D9917C",
"T. c #DC9E75",
"R. c #C89779",
"E. c #E18C73",
"W. c #E28A79",
"Q. c #F18070",
"!. c #E29474",
"~. c #E59C75",
"^. c #E4947A",
"/. c #E9947C",
"(. c #EB9B7C",
"). c #EE9374",
"_. c #F9977B",
"`. c #E18E6C",
"'. c #DBA472",
"]. c #ECAA75",
"[. c #ECA57B",
"{. c #EEAB7C",
"}. c #E5A678",
"|. c #F2AB76",
" X c #F3A47C",
".X c #F2AD7C",
"XX c #F9A878",
"oX c #EEB17D",
"OX c #F4B17D",
"+X c #FBB079",
"@X c #B57A80",
"#X c #B99C81",
"$X c #B7848D",
"%X c #CA8483",
"&X c #CA8787",
"*X c #D58486",
"=X c #C09B80",
"-X c #D59686",
";X c #D39793",
":X c #E69785",
">X c #F69B88",
",X c #E7938B",
"<X c #C4A485",
"1X c #D8AA88",
"2X c #DCB08D",
"3X c #D4AF96",
"4X c #ECA483",
"5X c #EEAD82",
"6X c #EAAA8A",
"7X c #E7A789",
"8X c #F4A583",
"9X c #F4AC82",
"0X c #FAAC84",
"qX c #F4A68A",
"wX c #F5AB8A",
"eX c #FBAD8B",
"rX c #FDA383",
"tX c #EBB384",
"yX c #EBB78D",
"uX c #F3B283",
"iX c #F9B285",
"pX c #F4B18A",
"aX c #FCB38C",
"sX c #F7BA8C",
"dX c #FEAD94",
"fX c #FAAD99",
"gX c #EDBE95",
"hX c #E6BB90",
"jX c #FFB494",
"kX c #F3BD94",
"lX c #FEBB93",
"zX c #F9BA9A",
"xX c #E8BCA1",
"cX c #EFC096",
"vX c #EFC39E",
"bX c #F0C190",
"nX c #F5C39D",
"mX c #FFC09B",
"MX c #F5C99C",
"NX c #F8C9A7",
"BX c #F1CAAE",
/* pixels */
"9 9 9 9 9 9 9 9 9 9 9 9 9 9 9 9 9 3 3 3 9 9 9 9 0 0 0 0 0 9 9 9 6 6 6 6 9 9 9 9 9 9 9 9 k k j 9 9 9 ",
"9 9 9 9 9 9 9 9 9 9 9 9 9 9 9 9 9 9 9 9 9 9 9 9 0 0 0 0 9 9 9 9 9 9 9 9 9 9 9 9 9 9 9 9 9 9 9 9 9 9 ",
"9 9 9 9 9 9 9 9 9 9 9 9 9 9 9 9 9 9 9 9 9 9 9 9 9 9 9 6 9 9 9 9 9 9 9 9 9 9 9 9 9 9 9 9 9 9 9 9 9 9 ",
"9 9 9 9 9 9 9 9 9 9 9 9 9 9 9 9 0 0 0 0 9 9 9 9 9 9 6 6 9 9 9 9 9 j k 9 9 9 9 9 9 9 7 7 6 7 7 9 9 9 ",
"9 9 9 9 9 9 9 9 9 9 9 9 9 9 9 9 0 0 0 0 9 9 9 9 9 9 6 9 9 9 9 9 k k k 9 9 9 9 0 9 7 7 7 0 0 0 9 9 9 ",
"9 9 9 9 9 9 9 9 9 9 9 9 9 9 9 9 0 0 0 9 9 9 9 9 3 9 9 9 9 9 9 9 k k k 9 9 9 9 0 0 0 0 0 0 9 9 9 9 9 ",
"9 9 9 9 9 9 9 9 9 9 9 9 9 9 9 9 9 9 9 9 9 9 9 9 9 9 9 9 9 9 9 9 9 9 9 9 9 9 9 9 9 9 9 9 9 9 k 9 9 9 ",
"9 9 9 9 9 9 9 9 9 9 9 9 9 9 9 9 9 9 9 9 6 6 9 9 9 9 9 9 9 9 9 9 9 9 9 9 9 9 9 9 9 9 9 9 9 k j k 9 9 ",
"9 9 9 9 9 9 9 9 9 9 9 9 9 9 9 9 3 3 9 6 6 6 9 9 9 9 l 3 l l 2 9 9 9 9 9 9 9 9 9 9 9 9 9 9 9 9 9 9 9 ",
"9 9 9 9 9 9 9 9 9 9 9 9 9 9 9 9 3 3 6 6 6 9 0 9 l 2 k k < c 9 9 9 < 3 v 2 l 9 9 9 9 9 9 9 9 9 9 9 9 ",
"9 9 9 9 9 9 9 9 9 9 9 9 9 9 9 9 9 9 6 6 7 0 0 0 9 k k 9 9 9 f 6 v v 9 9 3 3 3 k 9 9 9 9 6 6 6 6 9 9 ",
"9 9 9 9 9 9 9 9 9 9 9 9 9 9 9 9 9 9 9 7 7 0 0 9 9 l 9 9 f X : X X - 6 9 v d l 3 9 9 9 9 6 7 q 7 9 9 ",
"9 9 9 9 9 9 9 9 9 9 9 9 9 9 9 9 9 9 9 0 0 0 0 9 l < 9 7 7 r r t t r ; y q - 9 9 9 3 9 9 6 7 q 7 9 9 ",
"9 9 9 9 9 9 9 9 9 9 9 9 9 9 9 9 9 9 9 9 9 9 9 9 9 v n   t N.<XM.#X#XM + # g g 9 9 9 9 9 9 9 7 7 9 9 ",
"9 9 9 9 9 9 9 9 9 9 9 9 9 9 9 9 9 9 9 9 9 9 9 9 9 9 ; V +.xXnXkXkXvXo. .T $   7 9 k k k 9 9 9 9 9 9 ",
"9 9 9 9 9 9 9 9 9 9 9 9 9 9 9 9 9 9 9 9 3 3 3 9 9 f   T BX6X{.[.}.tXyXNX1XN V h o 1 9 j 9 9 9 9 9 9 ",
"l 8 8 k 9 6 9 9 c < 0 0 d 3 d 3 l 0 0 6 4 s 1 9 9 u @ J zXiX|.|.OXoX}.tXtXtXnX .# 7 d 3 9 8 9 9 9 9 ",
"8 9 l l 9 9 6 6 3 c l 0 < 3 d 9 8 n 5 = s s 9 0 7 ; U ;XwX X.X|.{.OXuXoX}.tXgXBXB.: = 9 8 9 9 9 9 9 ",
"0 0 9 1 9 9 0 v 2 c 0 l 9 v 9 9 c c d d 9 o O X . + ] -XP.aXsXoX.X{.{.}.zXNX .W W - 5 v l 2 9 3 9 9 ",
"0 0 6 6 d 9 8 9 0 5 & , , 0 0 5 <   = X # Z F F G C ..P.t.!.T.'.wXaXaX4X-Xo.w   X 0 6 5 l 9 9 9 9 9 ",
"0 5 7 7 < 9 v 0 - y x p p i ; y g h h a B 1XNXyXhXgXwXeX8XC.<.U.0X X(.:XO.e a h q 0 < 9 v 9 < 9 9 9 ",
"l 0 7 7 6 d v 5 w R %.%.%.M + M <X3X;X;X-XzXaX].oXsX.XiXmXfX6XG.4.3.2.E.7X-X3XT   7 v v < < v 9 9 9 ",
"j k 9 9 d 4 * % U %X*X*X&X[ J R.nX7X-XqX,XL.(.aXOX].uXm.N H 6XmXH.J.F. XpXsXNX<XI $   6 v l l 8 9 9 ",
"j c 9 9 s * y E &Xl.0.9.@.Y.fXwX!.<.:.8.>.:.L.(.~.].lXM.B @ H 2XnXsXwX0X|.].'.MX1XM Z p o 0 9 k 9 9 ",
"0 l 8 9 6 ; Y &Xk.d.d.r.Z.4XP.:.9.d.z.u.f.g.9.9.p.4X{.sX2XN + F 3X2XtXOX+X|.oXoX}.Z.-XY % 0 9 c 9 9 ",
"5 0 9 0 q R %Xk.z.9.>.g.qXU.:.s.z.j.z.k.p.p.k.0.@.Z.~.uXkX1XC + N 6XlX XXXXX|.|..XeXr.l.{ % 5 d 9 < ",
"7 7 6 o @ } *X9.u.8.W./.P.1.9.z.u.u.z.@.] ] #.c.u.1.!.sXpXkXH. .a.fXn.-.b.eXeX XaXrXA.p.%XY w - v 0 ",
": f d q Z &.c.v.I.K.>XdXe.y.c.k.y.u.v.| S S } *Xu.r.F.[.5X{.lXjX>Xb.*.Q ;.b._.0X X8X3.X.I.K.U t O v ",
"q 7 X m @X*X$...O.7XfX:Xy.$.#.l.k.0.v.q.` ` #.x.9.s.2.F.aX0X_.6.! *.*.) ( =.).aX5XaXA.2.e.i.&XY u 2 ",
"9 0 * m %.;X{ w e K.qXe.i.[ D ' x.0.z.k.h.h.k.d.d.r.>.E.wX0X7./ ^ _ ~ ~ -._.eX9XpX4XeXP.:.u.k.&XE & ",
"8 b O m $X} @ t o.qX^.e.$.J S ` p.s.s.d.x.c.z.d.s.s.u.W.wXeX).,.~ ~ n._.`.aX9X X9X[.jX^.8.z.0.c.$.[ ",
"k 9 < n R A   G zXzXL.i.i...' X.u.s.s.r.k.k.0.d.r.f.:.L.eX5XlX_.6.6.rXlXuXoX.X|..X9XwXL.8.d.z.0.z.*X",
"6 9 9 9 > u . h 1XzXI.y.u.k.v.f.u.s.d.d.k.k.k.u.u.r.e.!.wX9X.XXX0X0X0X.X{.{.9X.X9X9X8XP.e.d.d.z.u.u.",
"f 6 1 9 c 9 $ M 2XlXY.y.d.d.d.9.d.d.u.0.k.k.k.k.u.1.^.aX X].OXOXOX.X.X.X.X9X9X9X9X9X0XF.2.u.d.0.z.d.",
"9 3 9 9 9 o F =XtXpXY.@.u.w.d.d.9.d.z.z.k.k.u.u.r.1.(.aX.XOXOX]..X.X.X.XOXOXOX.X.X9XeXP.1.r.d.z.z.d.",
"9 9 9 9 9 X W NXtX.X4XL.d.0.d.u.d.d.d.u.u.u.u.u.1.F.8X9X.XOX.X.X.X.X.X.X.X.X{.{..X9XwXF.:.u.z.z.u.u.",
"k k 0 l k . K hXoX|.aX>Xu.9.u.u.u.u.u.u.d.u.r.e.F.qX0X.X.X]..XOX.X.X.X.X.X.X{.{..X9X8XF.e.u.z.0.z.d.",
"k l 0 l 0 . P cXoX|.9X8Xr.8.u.f.u.u.d.u.r.8.e.D.eXeX[..XuX.XOX]..X.X.X.X.X.X.XOX.X9XaX!.e.u.z.k.z.d.",
"k z 8 9 l # L yXOX|.0XeX/.f.1.e.p.r.u.r.:.e.E.qXeX9X.X.X].]..X.X{..X.X.X.X{.OXOX|.wXeXP.e.u.z.z.u.u.",
"k 9 l 0 l . P bX.X|.|.9XjX/.P.P.1.:.:.g.W./.8XjX9X.XOX|..XOX].uX{..X.X.X.X{.{..X0X X(.g.8.z.z.0.z.d.",
"9 9 9 9 l . P bX.X.X.X.X8XeXpX8XD.L.D.^.dXqX!.[.9X.X|..X.X.X.X.X9XuX.X{..X.X|..X9X8X3.1.f.u.z.k.z.d.",
"9 6 9 9 l . P bX5X X9X9X XwXuX5XeXqXqXdX4X3.4.S..X|..X.X.X.X.X.X[.{..X.XOX.X.X.XeXeXD.e.u.u.z.z.d.d.",
"6 6 9 9 l . K cX5X9XwX9X|..XuX5X9XF.3.V.A.U.[.[..X.X.X.X.X.X.X9X9XuX9X.X.X|..X9XaX8XD.r.u.u.z.z.d.d.",
"6 6 9 9 l . K cX5X.X9X9X|.|.oXuX{.!.S.S.J.aXlX.X.XOX.X.X.X.X9X9X9X.X.X|..X.XiXaX8XP.r.u.d.u.u.d.d.d.",
"6 6 9 k l . K gXpX.X9X9X|.|..X5XwXaXaXaXuX9X{.]..XOXOX.X.X.X9X9X.X{..X.X.X9X9X4XP.t.r.u.z.d.u.d.d.d.",
"6 6 l k l . K gXuX|.5X9X|.|..X{.].|..X.XuX9X.XuX.X.X.X.X.X.X9X9XiX.X.X.X|.9X9X!.1.e.u.u.u.d.d.d.d.d.",
"6 9 k k 0 . P cXOX.X9X9XXX|.9X9X.XOX.X.X{.{.9X{..X.X.X.X X X9X9X.X].|.|..XiX8X!.1.u.u.u.u.u.d.d.d.d.",
"6 9 k k l . P kXoX.X9X9X|.|.9X9XuX]..XOX{.{.uX.X.X.X.X.X.X X X.X.X.XOX9X9XeX(.t.r.u.u.k.z.u.u.u.d.d.",
"9 9 9 9 l . L kXoX.X.X9X.X.X.X.X.X.X.X.X.X.X.X.X.X.X.X.X.X.X.X.XuX].|.9XqX^.f.8.u.u.d.d.z.z.d.d.d.d.",
"9 9 9 9 l X L kX5X.X.X.X9X.X.X.X.X.X.X.X.X.X.X.X.X.X.X.X.X.X.X.X.X].iX0X(.t.u.k.d.s.d.d.z.z.u.u.d.d."
};
