/* XPM */
static char *_8a112a794b946dbaaf86b7d2f9ff502BxRXWRXtMt44nUOu[] = {
/* columns rows colors chars-per-pixel */
"50 50 188 2 ",
"   c #000004",
".  c #0C0003",
"X  c #01010B",
"o  c #0C030B",
"O  c #04080D",
"+  c #0A0A0E",
"@  c #130005",
"#  c #1D0003",
"$  c #1C010A",
"%  c #120F0F",
"&  c #1D0E0E",
"*  c #14050A",
"=  c #050511",
"-  c #080710",
";  c #050D12",
":  c #0B0C13",
">  c #0D0E19",
",  c #110F1B",
"<  c #071717",
"1  c #0D1214",
"2  c #0E151C",
"3  c #091A1A",
"4  c #131314",
"5  c #191514",
"6  c #121817",
"7  c #181817",
"8  c #15151B",
"9  c #18151C",
"0  c #141A1D",
"q  c #1A1A1C",
"w  c #240205",
"e  c #2E0005",
"r  c #260008",
"t  c #29020A",
"y  c #200F0F",
"u  c #340104",
"i  c #3C0002",
"p  c #300309",
"a  c #3D090B",
"s  c #20100F",
"d  c #2C0E13",
"f  c #230D15",
"g  c #221312",
"h  c #2D1B1D",
"j  c #371117",
"k  c #38171B",
"l  c #23211F",
"z  c #171721",
"x  c #151A22",
"c  c #1D1D22",
"v  c #221F23",
"b  c #301F21",
"n  c #3B1F23",
"m  c #0E2424",
"M  c #152122",
"N  c #1C2225",
"B  c #1B2827",
"V  c #162629",
"C  c #1D242A",
"Z  c #172D2F",
"A  c #1C2A2A",
"S  c #1A3030",
"D  c #232325",
"F  c #2A2225",
"G  c #282826",
"H  c #26262A",
"J  c #2E242A",
"K  c #242C2D",
"L  c #2B2B2D",
"P  c #33262C",
"I  c #372A2F",
"U  c #3A2223",
"Y  c #26302F",
"T  c #2F302F",
"R  c #30302F",
"E  c #232B30",
"W  c #2D2D31",
"Q  c #352E33",
"!  c #273130",
"~  c #2C3434",
"^  c #2C3639",
"/  c #27383B",
"(  c #2E3B3C",
")  c #353535",
"_  c #393434",
"`  c #353837",
"'  c #383837",
"]  c #353639",
"[  c #343B3B",
"{  c #3A3B3A",
"}  c #450001",
"|  c #4D0001",
" . c #420708",
".. c #4D090A",
"X. c #540102",
"o. c #5C0102",
"O. c #540608",
"+. c #5F0709",
"@. c #540D0E",
"#. c #5C0B0D",
"$. c #430F13",
"%. c #520F10",
"&. c #580F10",
"*. c #441115",
"=. c #491416",
"-. c #4A1719",
";. c #4D1B1D",
":. c #521515",
">. c #5D1213",
",. c #511618",
"<. c #5F1D1E",
"1. c #561A1B",
"2. c #630101",
"3. c #6A0000",
"4. c #610B0C",
"5. c #68090A",
"6. c #700000",
"7. c #650F10",
"8. c #651315",
"9. c #641719",
"0. c #671819",
"q. c #6A1C1C",
"w. c #721919",
"e. c #551E20",
"r. c #591E20",
"t. c #452223",
"y. c #4F2326",
"u. c #482B2C",
"i. c #522224",
"p. c #5B2425",
"a. c #572B2C",
"s. c #5E2A2B",
"d. c #423130",
"f. c #5D3738",
"g. c #5A3939",
"h. c #612626",
"j. c #632F30",
"k. c #683A39",
"l. c #2F403F",
"z. c #3F403F",
"x. c #40403F",
"c. c #40403F",
"v. c #3E3E40",
"b. c #413E42",
"n. c #2C4746",
"m. c #354241",
"M. c #3F4546",
"N. c #3C4343",
"B. c #3F4949",
"V. c #424241",
"C. c #414140",
"Z. c #444443",
"A. c #464645",
"S. c #434343",
"D. c #484646",
"F. c #434448",
"G. c #484648",
"H. c #444E4D",
"J. c #424C4B",
"K. c #4A494A",
"L. c #4C4C4C",
"P. c #524748",
"I. c #564D4E",
"U. c #46504F",
"Y. c #51514F",
"T. c #4F4F50",
"R. c #455454",
"E. c #4C5453",
"W. c #4D5959",
"Q. c #565656",
"!. c #535453",
"~. c #585151",
"^. c #5A5656",
"/. c #555957",
"(. c #585857",
"). c #555B5B",
"_. c #595958",
"`. c #5A5A59",
"'. c #5E5E5D",
"]. c #5B5B5A",
"[. c #644444",
"{. c #615A5A",
"}. c #5F605F",
"|. c #60605E",
" X c #566362",
".X c #5C6463",
"XX c #596866",
"oX c #636261",
/* pixels */
"o.o.o.o.o.2.2.2.2.2.u                                     X   . o.2.o.o.o.o.o.3.|             X X X ",
"2.#.p.s.e.=.=.-.:.2.i > C H H H H H H H H H L H 8 8 H W c > c P p.1.=.=.O.o.r.h.i.H H H z q 8 X X X ",
"X.a. X XM.K E / ) o...] E.'._.(.(.(._._._.Q._.Q.] ] Q.'.K.W K.}.).M.( [ ..#.Q. X)._.'.Q.{ { ) O   X ",
"@ Q .X[ C N N V v o.q.E.J.x.V.V.V.V.Z.Z.Z.) H L { { L L W ) V.S.N.[ ( [ ..4.Q.R.N.Z.K.x.H L D X X X ",
"  C K.q : q D K D u y.'.{ L ) ) ) ) L H G D c D L L c q D ' ) ) ) ) [ ' ..4.^.H.L H H L D D 8 X X X ",
"X 8 L 8 4 D ) x.) X c _.V.) ) ) { ) D 8 q W { ) D D ) ) ) ) ) ) ) ) ' ' ..4.~.H.L q 8 D { L : X X X ",
"X = 9 L W ) { ) q   C _.V.) { { ) D L L L { ) D H ) { { ' ) ) ) ) ) [ { @.o.Q E D L L ) { G : X X X ",
"X > L { { { { G +   H '.Z.) L ) L D ) { { ) H D ) { ) ) ) ) ) ) { { [ L ..o.Q K D ) { { { G 4 X X X ",
"  H (.x.) { { L +   H ].Z.L q q H ) ' { ) D D ) { ) ) ) ) ) ) ) { { W ; i 7.~.B.) ) ' { { G 4 X X X ",
"  W '.x.) ) { L 4   8 { L D L L W { { ) D H ) { { ) ) ) ) { { ) H H N : i 8.^.H.) ) ' { { D O X X X ",
"  L _.{ ) { { L :   8 ) D H { { { ] ) L c ) { ) ) ) ' { ) ) ) L D N c 4 } 7.~.J.] ) ) ) ) c + o o X ",
"  L _.{ ) { { H X   H Q.{ ) ) { { ) D D ) { ) ) ) ) { { ) c q D ) { Y 4 i 7.(.J.) { L q c 0 g X.t X ",
"  W '.Z.L H L c +   H '.Z.) ) { ) H D L { { ) ) { ) H H L H D L { z.~ 4 i 8.{.E.) H H L L M g 2.u X ",
"  H Q.{ H c D q 4   C ].V.) ) { L c ) { { { { { { W v q H { { { { { ~ 4 i 4.I.J.L c L { { A y o.e X ",
"  z ] D H { { L :   C '.V.) ' H H ) { { { { { { L H ) ) ) { { { { { ^ 6 } o.F N D ] { { N.A & o.e X ",
"X 2 ~ K K ! ~ B 1 # n !.Z.) L q q Y K K K A C C q q L R L L L L L L A 3 } o.D Z K K K K K m 5 o.e X ",
"  9 ' { F % % 1 & o.&.] [ L q 4 4 4 4 4 4 + O + : 4 4 4 4 4 4 4 4 4 4 4 } o._ { ) 7 % 4 4 2 g o.e X ",
"} | O.O.| } } } X.3.} = X X X X $ X.X.| | | | } .             X X e X.| X.o.O.#.#.X.| | | | X.2.r X ",
"3.5.>.>.9.9.9.0.q.q.j = 8 8 > = $ O.#.#.#.>.5.2.d x z z z z > = = *.w.0.<.<.9.O.| | X.O.#.>.4.2.r X ",
"2.p.).).Q.(.(.(._.'.S.W T.!.) D q c ) { ' l.t.o.g. X_.(._.(.{ H L K.'._.Q._._.) 8 q q D ) m.d.+.e X ",
"# I  XU.M.J.H.N.~ ^ ' { { W L L ~ ~ [ [ [ S d o.[. XL.L.Z.) ) ) ) M.U.H.[ ~ ^ ~ ~ ^ ^ ~ K Z F o.e X ",
"  E _.{ T ) ) H q 8 D ) D q D ) { { ) { ) 0 w o.[.W.L L H q L { { ) L L D q q ) { ) ) ) D V b 2.u X ",
"  H _.{ ) ) c H ) D 8 c W ) ) ' ' ) ) { ) 0 w o.[.R.c 8 D ) { { { H 8 q L ) ) { ) D q D ) [ d.5.e X ",
"  H _.Z.) D q c L L L L ) { { ' ) ) ) { ) M e 3.u.( K L ) { L D D L L L { { L D H L H L { ] F r @ X ",
"  W '.{ D q c c D ) { { ) ) ) ) ) ) ) { ' M w X.n ( { ' ) ) D q c ) { ) ) W c q D ) { { { D + X X X ",
"  W ].c - c ) ) ) ) { { ) ) ) ) ) ) { { { 7   o b.(.{ D q c L ) ) { ) D q D ) ) ) ' { { { D + X X X ",
"  z ] D c L ' { { ) ) ) ) ) ) ) { { L L L q X X ^ D.L D D L { { L L L H D L { { { ) ) { { G 4 X X X ",
"X = c ) { { ) ) ) ) ) ) ) ) ) ' { ) D c c q + X C L c ) { ) ' W c q D ) { ) ) ) ) ) ) { { D : X X X ",
"  c K.{ ) ) ) ) ) ) ) ) ) ) { { W c L { ) 7   X { L.) { ) D c D ) ) ) ' { ' ) ) ) { { { { D O X X X ",
"  W |.x.) ) ) ) ) ) ) ) { ) L L L D L ) ) 7   X K.'.) L L D c L { { { ) ) { { { ) L L L W q + X X X ",
"  W ].x.) ) ) ) ) ) ' { { L c q L { H c D q O X F.!.c 8 D ) { { { { { ' ) ) ) { ) D q c D q 4 X X X ",
"  W '.{ ) ) { { { { { { L L ) D c L ) ) ) l O X H { W L ) { { { { { { { W D H H L ) ) ) ) D 4 X X X ",
"  H Q.V.{ { ) L R L L L q D ) D q q L { ) q o @ v ( [ { [ [ ~ K K L L L D q q q c ) ) ) ) D 4 X X X ",
"  9 { { { ) q 4 4 : + - + + : 4 7 4 4 7 4 ; w o.t.l.' ' ' ' N 1 ; ; + - 4 4 4 4 4 4 4 4 7 q 4 X X X ",
"X X O - > 8 O X                 O X         # 3.4.:.%.....@.| } i .                     X O O X X X ",
"o o : > = X X X X : > > > , > = X = : > > , f O.o.X.X.+.+.o.o.2.3.t > > > : > > : : > : X X X X X X ",
"X.i.).).{ 4   = L L.Q.!.!.Q.!.) c H K._.Q._.G.J J J P P.I._ ) t.2.a.W.!.!.!.!.!.!.!._.K.c q 9 X X X ",
"3.p.E.M.W q   z L.Q.Q.!.Z.v.V.{ { { V.V.V.V.{ ^ ^ ~ ^ J.H.[ n.u.2.k.XXE.L.L.L.Y.Q.Q.Y.{ D N F p @ X ",
"2.=.K 2 q q   H |.{ L ) D q c ) { ) D q q q H { { ' ` ] ] ' ( U X.f.W.' ) ) ) ) ) ) D q N V h 2.u X ",
"2.$.K W ) L X H |.L 8 D W ) ) D c D L ) W L ) ) ) ) ) ) ) { D + . { (.' ) { { L q 4 4 c ] A g 2.u X ",
"o.;.N.N.Z.) X z K.) q q L ) L H D D ) { { { { ) ) ) ) ) { { l   X [ ].{ L L L D 8 q D L { A & o.e X ",
"o.s.).N.' ) X - W { L c c q c ) { ' ) ) ) ) ) ) ) ) ) ) { { D O   v.].{ D q q q D ) { { { B s o.e X ",
"o.j..X~ q 1 X > H D L ) ) L W ) { { ) ) ) ) ) ) ) ) ) ) { { D O   S.'.L q 8 8 H ) { { { { A g o.e X ",
"o.i.M.D :     z { H L { { { { ) ) ) ) ) ) ) ) ) ) ) ) ) { ' D + X W v.q c D D ) { ) ) { { B & o.e X ",
"2.a x N 8 X   H ].x.) ) ' { { ) ) ) ) ) ) ) ) ) ) ) ) ) { { D + X > q c L { ' ' { ) ) { { M * o.e X ",
"2.*.E [ L +   E oXZ.) ) { { { { { { { { { { { { { { { { x.x.q   X W Z.) ) { { { { { { { L 0 & o.e X ",
"o.;.m.[ K 1 @ J /.N.` { ) R ) ) ) ) ) ) ) ) ) ) ) ) ) ) ) W 8     v.|.V.{ ' ) ) ) ) ~ K x 3 g o.e X ",
"o.;.( M < 5 X.,.[ [ { { q 4 7 q q q q 7 7 7 q q q q q 4 - O 4 : X H Z.{ { ) q 4 q q 1 ; 2 3 g o.e X ",
"o.@.=.a u  .2.+.=.:.k 8 - X O O O O O O O O O O O O O X X X O - X : 8 8 q 8 O O O O w i  .a ..2.t X ",
"o.o.o.2.2.2.o.o.2.3.u X X X X X X X X X X X X X X X X X X X X X X X         X X X X i 6.3.2.2.2.r X "
};
