/* XPM */
static char *_5d248575a904135dd042e38a841d0fcY6sSdtoudus9NDuP[] = {
/* columns rows colors chars-per-pixel */
"50 50 6 1 ",
"  c None",
". c #141B1B",
"X c #E0394C",
"o c #E46D3A",
"O c #EF914F",
"+ c #E3F1F5",
/* pixels */
"                                                  ",
"                                                  ",
"                                                  ",
"                                                  ",
"                                                  ",
"                                                  ",
"                                                  ",
"                                                  ",
"               ..                                 ",
"              .XX.    ..                          ",
"              .XX.   .XX..                        ",
"               ..    .XXXX.                       ",
"                     .XXXXX. ..                   ",
"                     .XXXXXX.XX.  ..              ",
"                     .XXoXXX.XXX..XX.             ",
"                     .XXooXXXXXX. .XX.            ",
"             ...    .XXXoooXXXX.  .XXX.           ",
"           ..XXX.   .XXXooooX..  .XXXXX.          ",
"          .XXXX.    .XXooOooXX. .XXXoXXX.         ",
"         .XXXXX.   .XXoooOooXXX.XXXoooXX.         ",
"        .XXXXX.   .XXXooOOOooXXXXXooooXXX.        ",
"       .XXXXoX.  .XXXoooOOOoooXXooooOooXX..       ",
"       .XXXooXX..XXXXooOOOOOooooooOOOooXX.X.      ",
"       .XXooooXXXXXXooOOOOOOoooooOOOOooXXXXX.     ",
"      .XXXooOooXXXoooOOOOOOOOoooOOOOooXXXXXX.     ",
"      .XXoooOoooXoooOOOOOOOOOOooOOOOooXooXXX.     ",
"      .XXooOOOoooooOOOOO.OOOOOOOOOOooXooooXX.     ",
"      .XXooOOOOOooOOOOO...OOOOOOOOOooooOooXX.     ",
"     .XXXooOOOOOOOOOOOO.+.OOOOOOOOOooOOOooXX.     ",
"     .XXXooOOOOOOO.OOOO.+.OOOO.OOOOoOOOooXXX.     ",
"     .XXXooOOOOOO...OOO.+.OOO...OOOOOOoooXX.      ",
"     .XXXooOOOOOO....OO...OO....OOOOOoooXXX.      ",
"     .XXXooOOOOOO.....OO.OO.....OOOOoooXXXX.      ",
"     .XXXooOOOOOOO..++.OOO.++..OOOOOooXXXX.       ",
"     .XXXooOOOOOOOO.++.OOO.++.OOOOOOOooXXX.       ",
"     .XXXooOOOOOOOOO...OOO...OOOOOOOOooXXX.       ",
"      .XXoooOOoOOOOOOOOOOOOOOOOOOoOOOooXX.        ",
"      .XXXooOOOoOOoooOOOOOOoooOOoOOOoooXX.        ",
"       .XXoooOOOooOOOooooooOOOooOOOOooXXX.        ",
"       .XXXoooOOOOOOOOOOOOOOOOOOOOOooXXX.         ",
"        .XXXoooOOOOOOOOOOOOOOOOOOOooXXXX.         ",
"         .XXXooooOOOOOOOOOOOOOOOoooXXXX.          ",
"          .XXXoooooOOOOOOOOOOoooooXXXX.           ",
"           .XXXXooooooooooooooooXXXXX.            ",
"            ..XXXXXoooooooooooXXXXX..             ",
"              ...XXXXXXXXXXXXXXXX..               ",
"                 ...XXXXXXXXX....                 ",
"                    .........                     ",
"                                                  ",
"                                                  "
};
