/* XPM */
static char *ddfc3c6666f74d3290ac95442551b587bjQ7QfnOzl8aKuTn[] = {
/* columns rows colors chars-per-pixel */
"50 50 6 1 ",
"  c None",
". c #141B1B",
"X c #E46D3A",
"o c #E0394C",
"O c #EF914F",
"+ c #E3F1F5",
/* pixels */
"                                                  ",
"                                                  ",
"                                                  ",
"                  .                               ",
"                 .X.                              ",
"                  .                               ",
"                                                  ",
"                                                  ",
"                                                  ",
"               ..     .                           ",
"              .oo.   .o..                         ",
"             .oooo. .oooo.       ..               ",
"             .oooo. .ooooo.     .oo.              ",
"              .oo.  .oooooo.   .oooo.             ",
"               ..   .ooXoooo.   .oooo.            ",
"              ..   .oooXXoooo.  .ooooo.           ",
"            ..oo.  .oooXXXooo.  .oooooo.          ",
"           .oooo. .oooXXXXXooo..oooXooo.          ",
"          .ooooo. .oooXXOXXooo.ooooXXooo.         ",
"         .oooooo..oooXXOOXXooooooXXXXooo.         ",
"        .ooooXXo.oooXXOOOOXooooXXXXOXXoo. .       ",
"        .oooXXXooooXXOOOOOXXoXXXXOOOXXoo..o.      ",
"       .oooXXXXXooXXOOOOOOXXXXXOOOOXXXooooo.      ",
"      .oooXXXOXXXXXXOOOOOOOXXXXOOOOXXoooooo.      ",
"      .oooXXOOOXXXXXOOOOOOOXXXOOOOOXXooXXXo.      ",
"     .oooXXXOOOXXXoOOOOO.OOOXXOOOOOXXXXXXXo.      ",
"     .oooXXOOOOOXoOOOOO...OOOOOOOOOXXXXXXoo.      ",
"     .ooXXXOOOOOXOOOOOO.+.OOOOOOOOOXXOOXXoo.      ",
"    .oooXXOOOOOOOO.OOOO.+.OOOO.OOOOXOOOXoo.       ",
"    .oooXXOOOOOOO...OOO.+.OOO...OOOXOOXXoo.       ",
"    .oooXXOOOOOOO....OO...OO....OOOOOXXoo.        ",
"    .oooXXOOOOOOO.....OO.OO.....OOOOOXXoo.        ",
"    .oooXXOOOOOOOO..++.OOO.++..OOOOOXXoo.         ",
"     .ooXXOOOOOOOOO.++.OOO.++.OOOOOOXXoo.         ",
"     .ooXXOOOOOOOOOO...OOO...OOOOOOOOXXo.         ",
"     .oooXXOOOXOOOOOOOOOOOOOOOOOOXOOOXXoo.        ",
"      .ooXXOOOOXOOXXXOOOOOOXXXOOXOOOOXXoo.        ",
"      .oooXXOOOOXXOOOXXXXXXOOOXXOOOOXXooo.        ",
"       .ooXXOOOOOOOOOOOOOOOOOOOOOOOOXXooo.        ",
"       .oooXXXOOOOOOOOOOOOOOOOOOOOOXXooo.         ",
"        .oooXXXOOOOOOOOOOOOOOOOOOOXXoooo.         ",
"         .oooXXXXOOOOOOOOOOOOOOOXXXoooo.          ",
"          .oooXXXXXXOOOOOOOOXXXXXXoooo.           ",
"           ..oooXXXXXXXXXXXXXXXXooooo.            ",
"             ..ooooXXXXXXXXXXXooooo..             ",
"               ..ooooooooooooooo...               ",
"                 ...ooooooooo...                  ",
"                    .........                     ",
"                                                  ",
"                                                  "
};
