/* XPM */
static char *_a23d8543d9e4d32d49588080ec091085i0Sga45f53b20Qy[] = {
/* columns rows colors chars-per-pixel */
"50 50 6 1 ",
"  c None",
". c #141B1B",
"X c #E46D3A",
"o c #E0394C",
"O c #EF914F",
"+ c #E3F1F5",
/* pixels */
"                                                  ",
"                                                  ",
"                                                  ",
"                                                  ",
"                                                  ",
"                                                  ",
"                                                  ",
"              .                                   ",
"             .X.                                  ",
"              .               ..                  ",
"                             .oo.                 ",
"                            ..oo.                 ",
"                           .oo..                  ",
"                   ...    .oooo.                  ",
"           .      .ooo.   .ooooo.                 ",
"          .o.    .ooooo...oooXooo.                ",
"         .oo.    .ooooo.oooooXXoo. ......         ",
"        .oooo.   .oooooooooXXXXooo.oooooo.        ",
"       .ooXooo. .ooooooooXXXXOXXoooooooooo.       ",
"       .ooXXooo.oooooXXXXXXOOOXXoooooooooo.       ",
"      .ooXXXXooo.ooXXXXXOOOOOXXXoooXooooo.        ",
"      .ooXXXXXooooXXXOOOOOOOOXXoooXXXooo.         ",
"      .ooXXXXXXXoXXXOOOOOOOOOXXooXXXXXoo.         ",
"      .ooXXOOXXXXXXOOOOOOOOOOOXXXXXOXXoo.         ",
"      .oooXXOOOXXXXOOOOOOOOOOOOXXXOOXXo. .        ",
"       .oooXXOOOXXXOOOOOOOOOOOOOOOOOXXo..o.       ",
"       .oooXXOOOOXOOOOOO.OOOOOOOOOOXXoo.ooo.      ",
"        .ooXXXOOOOOOOOO...OOOOOOOOOXXXoooXo.      ",
"        .oooXXOOOOOOOOO.+.OOOOOOOOXXXXXXXXoo.     ",
"       .ooooXXOOOO.OOOO.+.OOOO.OOOXXOXXXXXoo.     ",
"       .oooXXXOOO...OOO.+.OOO...OOXOOOOXXXoo.     ",
"       .oooXXOOOO....OO...OO....OOOOOOOOXXoo.     ",
"       .oooXXOOOO.....OO.OO.....OOOOOOXXXXoo.     ",
"      .oooXXOOOOOO..++.OOO.++..OOOOOOXXXXoo.      ",
"      .oooXXOOOOOOO.++.OOO.++.OOOOOOXXXoooo.      ",
"      .oooXXOOOOOOOO...OOO...OOOOOOOOXXooo.       ",
"      .oooXXOOXOOOOOOOOOOOOOOOOOOXOOOXXooo.       ",
"       .ooXXXOOXOOXXXOOOOOOXXXOOXOOOXXXoo.        ",
"       .oooXXOOOXXOOOXXXXXXOOOXXOOOOXXooo.        ",
"        .ooXXXOOOOOOOOOOOOOOOOOOOOOXXooo.         ",
"        .oooXXXOOOOOOOOOOOOOOOOOOOXXoooo.         ",
"         .oooXXXXOOOOOOOOOOOOOOOXXXoooo.          ",
"          .oooXXXXXOOOOOOOOOOXXXXXoooo.           ",
"           ..oooXXXXXXXXXXXXXXXXoooo..            ",
"             ..ooooXXXXXXXXXXXoooo..              ",
"               ..ooooooooooooooo..                ",
"                 ...ooooooooo...                  ",
"                    .........                     ",
"                                                  ",
"                                                  "
};
