/* XPM */
static char *b0fcfa175d974f4d831d43e59e34399aSNqtQ3qcHGMKMtJc[] = {
/* columns rows colors chars-per-pixel */
"50 50 6 1 ",
"  c None",
". c #141B1B",
"X c #E0394C",
"o c #E46D3A",
"O c #EF914F",
"+ c #E3F1F5",
/* pixels */
"                                                  ",
"                                                  ",
"                                                  ",
"                                                  ",
"                                                  ",
"                                                  ",
"                                                  ",
"                   ..         .                   ",
"                  .XX.       .o.                  ",
"                 .XXXX.........                   ",
"                 .XXXXXXXXXXXX.                   ",
"           .     ..XXXXXXXXXXXX.                  ",
"          .X.   .XXXXXXXXXXXXXX.                  ",
"         .XXX. .XXXXXoooooXXXX. ......            ",
"        .XXXX..XXXXXoooooooX.. .XXXXXX.           ",
"        .XXXXX.XXXXoooOOooXXX..XXXXXXXX.          ",
"        .XXoXX.XXXoooOOOooXXXXXXXooooXXX.         ",
"        .XXooXXXXoooOOOOOooXXXXoooooooXXX.        ",
"        .XXooooXoooOOOOOOooooXooooOOOooXXX.       ",
"        .XXXoooooooOOOOOOOooooooOOOOoooXXXX.      ",
"         .XXooOoooOOOOOOOOOooooOOOOooXXXXXX.      ",
"         .XXooOOooOOOOOOOOOOOoOOOOoooXXXXX.       ",
"         .XXooOOooOOOOOOOOOOOOOOOOooXXXXX.        ",
"         .XXooOOooOOOOOOOOOOOOOOOOooXXXX.. .      ",
"        .XXXooOOOoOOOOOOOOOOOoOOOOooooXXXX.X.     ",
"        .XXooOOOOOOOOOOOOOOOoXoOOoooooooXXXX.     ",
"       .XXoooOOOOOOOOOOO.OOOoXoOOooOOOooooXX.     ",
"       .XXooOOOOOOOOOOO...OOOOOOOoOOOOOoooXX.     ",
"      .XXoooOOOOOOOOOOO.+.OOOOOOOOOOOOoooXX.      ",
"      .XXooOOOOOOO.OOOO.+.OOOO.OOOOOOoooXXX.      ",
"     .XXXooOOOOOO...OOO.+.OOO...OOOOOooXXX.       ",
"     .XXXooOOOOOO....OO...OO....OOOOooXXX.        ",
"     .XXXooOOOOOO.....OO.OO.....OOOOooXXX.        ",
"     .XXXoooOOOOOO..++.OOO.++..OOOOOOooXXX.       ",
"      .XXXooOOOOOOO.++.OOO.++.OOOOOOOooXXX.       ",
"      .XXXooOOOOOOOO...OOO...OOOOOOOOooXXX.       ",
"       .XXoooOoOOOOOOOOOOOOOOOOOOoOOoooXX.        ",
"       .XXXooOOoOOoooOOOOOOoooOOoOOOooXXX.        ",
"        .XXoooOOooOOOooooooOOOooOOOooXXX.         ",
"         .XXoooOOOOOOOOOOOOOOOOOOOooXXXX.         ",
"          .XXoooOOOOOOOOOOOOOOOOOooXXXX.          ",
"           .XXoooooOOOOOOOOOOOooooXXXX.           ",
"            .XXXooooooooooooooooXXXX..            ",
"             ..XXXXoooooooooooXXXX..              ",
"               ..XXXXXXXXXXXXXXX..                ",
"                 ...XXXXXXXXX...                  ",
"                    .........                     ",
"                                                  ",
"                                                  ",
"                                                  "
};
