/* XPM */
static char *_3cbcb51df2a433cd28d7c2889cbd548tQYGe1pPnLk0Wuul[] = {
/* columns rows colors chars-per-pixel */
"50 50 134 2 ",
"   c None",
".  c #030303",
"X  c #070708",
"o  c #070808",
"O  c #0B0B0C",
"+  c #0E0F10",
"@  c #0F1011",
"#  c #131315",
"$  c #161719",
"%  c #17181A",
"&  c #1A1B1C",
"*  c #1D1F21",
"=  c #1F2022",
"-  c #222325",
";  c #242629",
":  c #27282C",
">  c #292B2E",
",  c #2B2E32",
"<  c #2E3135",
"1  c #303236",
"2  c #33353A",
"3  c #36393E",
"4  c #383A3F",
"5  c #373A40",
"6  c #3A3D42",
"7  c #3D4146",
"8  c #3F4248",
"9  c #42454B",
"0  c #45494F",
"q  c #4A4B4F",
"w  c #464A51",
"e  c #494D54",
"r  c #4D5057",
"t  c #4E5259",
"y  c #51555D",
"u  c #54585F",
"i  c #525660",
"p  c #555A62",
"a  c #595D65",
"s  c #5A5F68",
"d  c #5D6167",
"f  c #5D626B",
"g  c #61656E",
"h  c #65686F",
"j  c #626770",
"k  c #656A73",
"l  c #6A6E76",
"z  c #696F78",
"x  c #6E7177",
"c  c #6D727B",
"v  c #71757E",
"b  c #6F7580",
"n  c #727680",
"m  c #757B84",
"M  c #797D86",
"N  c #777D88",
"B  c #797F89",
"V  c #7D8186",
"C  c #7D828C",
"Z  c #7F8591",
"A  c #81868E",
"S  c #828791",
"D  c #858A93",
"F  c #898D96",
"G  c #878C98",
"H  c #8A8F99",
"J  c #8D929C",
"K  c #92969D",
"L  c #9297A2",
"P  c #969AA3",
"I  c #9A9DA4",
"U  c #999EA9",
"Y  c #9FA1A7",
"T  c #9DA2AB",
"R  c #A1A5AB",
"E  c #A6AAAD",
"W  c #A8ABAF",
"Q  c #A2A7B2",
"!  c #A5AAB3",
"~  c #AAAEB5",
"^  c #AAAFB8",
"/  c #AEB2BA",
"(  c #B3B6BD",
")  c #B4B8BF",
"_  c #B2B7C0",
"`  c #B5BAC1",
"'  c #BABFC7",
"]  c #BABEC5",
"[  c #BCBFC5",
"{  c #B8BCC2",
"}  c #BBBFC8",
"|  c #BDC0C7",
" . c #BDC1C7",
".. c #BCC0C8",
"X. c #BFC2C8",
"o. c #C2C5CA",
"O. c #C2C5CB",
"+. c #C4C8CE",
"@. c #C5C9CF",
"#. c #C6CAD0",
"$. c #C7CBD0",
"%. c #C6CAD0",
"&. c #C8CBD1",
"*. c #C9CCD3",
"=. c #CACDD3",
"-. c #CBCED5",
";. c #C9CCD2",
":. c #CDD0D5",
">. c #CDD1D6",
",. c #CFD2D6",
"<. c #CED2D8",
"1. c #CFD2D8",
"2. c #CDD1D8",
"3. c #D0D4D9",
"4. c #D2D5D9",
"5. c #D2D5DA",
"6. c #D4D7DD",
"7. c #D2D5DA",
"8. c #D7DADF",
"9. c #D6D9DD",
"0. c #DCDFE2",
"q. c #DDE0E3",
"w. c #DEE0E3",
"e. c #DEE1E6",
"r. c #E0E2E5",
"t. c #E3E5E7",
"y. c #E1E3E7",
"u. c #E3E6E8",
"i. c #E5E7EB",
"p. c #EAECED",
"a. c #EAECEF",
"s. c #ECEEF1",
"d. c #ECEEF1",
"f. c white",
/* pixels */
"                                                                                                    ",
"                                                                                                    ",
"                                        a ] U ! ] ] ~ Q ] a                                         ",
"                                        w d y C ~ ~ C d d w                                         ",
"                                y d J C 0 d 6 9 D D 9 6 d 0 C P f y                                 ",
"                            i A { l T <.a c i 2 y y 2 i c a -.{ n ` A i                             ",
"                        t B ( &.f.| l J w D d t w w e g D 0 K l ( f.#.( F y                         ",
"                  z 0 d ! ( u.q.~ z * O @ r 6 9 m N d y v - + O a ~ 0.t.] ! d 9 v                   ",
"                ( =.c e ! <.I i * o # < a I C , - > * % k v y 5 % * y I =.! e c :.{                 ",
"              ( e.A k v 0 t > X O k ( ] i.8.C 7         D N d B j y > > e 0 v k N 6.(               ",
"            ! J P A y D u . . ; F ..:.:.a.T C 6         S c w S c z s - . y D y A I J !             ",
"          0 k p 7 9 z n ; . 0 ] 5.[ ! :.o.~ I 2         N j y g z a z c 6 - v z 9 6 p k 0           ",
"          d e e N z g : . a 5.r.` m d N C q.~ ,         n f z 6 5 < y c C 2 - g z N e w j           ",
"          T #.I 5 y $ . k } 5.T S 7 < ; N s.W ,         c g c w # O 2 y k c ; # u 8 I +.!           ",
"        z T 5.+., o o d ^ o.J v 4 5 6 e D r.E <         c j z w , & $ 3 0 j k * . : +.5.U N         ",
"        J ` a.v % O * ( ) z 6 2 3 e 0 N T s.R ,         c j z i 9 - * $ % 1 c 2 # $ v a.( U         ",
"      y C &.{ 2 @ o 6 _ D 7 f F v k C P | 8.K <         l f j l y 7 , w 7 > y 7 # # 1 { +.G y       ",
"      e T R 9 O $ o g ~ B D k t g c { ( g ..K ,         j d a 2 a u 3 > , 9 e w $ # O 8 T | r       ",
"    x F ~ N , % O . D K w 3 0 e 3 a C N d 5.Y ,         i i j 1 5 e - & : $ , t % O % , N / F x     ",
"  n _ o.o.C y 6 & . D C > 7 w S H l 3 j J 8.K ,         e e k e 5 - 9 e 1 $ * w % $ 6 y C { o._ n   ",
"  2 y z m l u , o $ w f > 7 5 z K j y s / <.D ,         7 5 g f < > w t ; $ * 2 & O < y x N c t >   ",
"    d N ` ~ c 5 . $ 7 w 1 7 6 0 c N / ..I a 9 -       h 0 , 2 t d i 6 > & & & 6 > X i v ~ { N w     ",
"    d 2 N g < 9 X o 9 e , 2 y 5 e 5.R ;           N ! C t s a 6 : y 0 + > & $ 9 > . d 5 g N 2 8     ",
"    d 2 i 0 9 e X o 9 r - w c 2 R V +           ! -.w 2 d N P J l * i - , ; # 6 - . a 0 9 y 2 w     ",
"  e k x M l a y % X 7 w e C 2 t d # #         x Q a , g d n P ! n d : > $ 4 * 1 * $ 9 i v F m z y   ",
"  a J ( o.I g 6 ; O 2 t C 3 > A w #           | ) < n L n g k m m P 3 6 & - 6 - = > 7 j I o.( J f   ",
"    > 9 e 2 = O X X 9 e w ; 6 C 7 $         d T n = y t C F g 6 c 9 # 0 ; # > > o X O = 2 e 9 >     ",
"      D ~ A 6 O . + i w < ; z m > &         d b 6 # & O % 6 v y 6 O > 6 6 $ & 2 O . O 6 C ( F       ",
"      J 3.T 7 @ . $ a 0 - 1 m B 2 %         u l * > 0 7 % # 2 k 9 6 7 2 9 $ # 2 O X @ 7 T r.J       ",
"      S { P 5 # X % k 0 8 k e i e &         0 g > * 0 f f p t : 7 e $ 1 > < & 2 O o $ 5 P &.D       ",
"      S U m 2 $ o & c t t < ; e f - &       e e > o ; ; 3 t 3 - 3 # # < o * > 1 # O $ 2 m T S       ",
"      C P c 6 $ O & j i 3 - a 9 k y 3         e < $ $ X % 9 9 e ; O > > > @ - < # # $ 6 c L C       ",
"      A ~ C 6 $ o $ f e & w 8 # 2 c j y       1 1 $ $ # & 3 a y - % 2 X # = # , O O $ 6 B ( S       ",
"      n ( C 5 # . % j 9 $ < g y > 6 j N c y     - - + $ < 3 e < > 2 $ # , & O , o X # 5 C o.N       ",
"      n ` C 2 O $ < t 0 1 o ; 9 f r ; r ! J f 5   & & % < - > > 9 * ; 2 = . $ 2 , % O 2 C +.m       ",
"      z / N , O o - y 2 e a a % % y z 3 q A 2 -         , & 6 g & - - . @ , = , 1 o O , m ..c       ",
"      a U g - o o - t > < 0 z u 2 3 0 D g i 6 -         6 2 < & < 4 % $ 6 ; O , > o o - g ! d       ",
"    5 c T g - O O = 9 < 9 9 3 7 9 6 3 2 h j 7 &         9 6 , < 7 # $ > = ; & > ; O O - d ! v 5     ",
"    3 K +.D > O # - 7 7 2 < < 9 y 0 > < 9 a 6 2         9 2 2 ; $ # ; , - $ & < , # O > S #.P 3     ",
"  i r 8 a 0 < , * - 6 t , - > & > 0 3 3 w a g 9       2 H c ; * & % ; o O o $ , - = , < 0 f 9 r i   ",
"  A ` J C J F C w $ > i v c e * 3 6 6 i k P e =         e i 0 - > # + . X 1 3 % $ w C F J A J ` A   ",
"  n D D J z i i 8 % 2 m c c z c d i i v P c m *         > > 9 y 2 < , < < 3 6 > * 9 i i c J D D n   ",
"  k Z I ~ b e w 1 $ , t d c v m C C C L z d v -         1 6 6 6 t 2 6 9 w 8 2 - & 1 w e n T P Z k   ",
"  f B N B d 9 3 - o ; 5 w j e t a e g a a c a -         < 2 3 > 7 9 3 2 : 2 ; $ + - 3 9 d m m C f   ",
"  9 d a i 0 < - # X & , 2 6 6 8 9 0 t y p v e -         , , 6 7 ; , ; ; - = $ O X # - < 0 i a d 9   ",
"  6 y e 9 3 , > : - - , < < 2 5 2 2 1 i e t 9 ;         2 1 2 > 1 - % $ & & & % - : > , 3 8 e y 6   ",
"    9 6 6 3 2 2                   1 < , , < 1 ;         6 5 ; & : % $ & *           2 2 3 9 6 9     ",
"                                                        1 < % & $ %                                 ",
"                                                                                                    ",
"                                                                                                    "
};
