/* XPM */
static char *d643d619a9744ceb9a6a669e9e1da2beABL82ZSMKdTvPXVg[] = {
/* columns rows colors chars-per-pixel */
"50 50 127 2 ",
"   c None",
".  c black",
"X  c #070708",
"o  c #0B0B0C",
"O  c #0F0F11",
"+  c #131415",
"@  c #161719",
"#  c #17181A",
"$  c #1A1B1D",
"%  c #1E1F21",
"&  c #1F2123",
"*  c #222325",
"=  c #242629",
"-  c #26292C",
";  c #292B2E",
":  c #2C2E31",
">  c #2F3135",
",  c #313236",
"<  c #33353A",
"1  c #36393E",
"2  c #383B3F",
"3  c #3A3D43",
"4  c #3E4146",
"5  c #3F4248",
"6  c #42454B",
"7  c #45494E",
"8  c #484A4F",
"9  c #464B51",
"0  c #4A4E54",
"q  c #4C5056",
"w  c #4E5259",
"e  c #52565E",
"r  c #54585F",
"t  c #555A62",
"y  c #595D65",
"u  c #5B5F68",
"i  c #5D626B",
"p  c #61656D",
"a  c #626770",
"s  c #656A73",
"d  c #696E75",
"f  c #6A6F79",
"g  c #6C7077",
"h  c #6D727A",
"j  c #71757D",
"k  c #74787E",
"l  c #717680",
"z  c #757A83",
"x  c #7A7E86",
"c  c #767D88",
"v  c #7A7F88",
"b  c #7D828C",
"n  c #7F8692",
"m  c #81858E",
"M  c #828792",
"N  c #858A93",
"B  c #8A8E96",
"V  c #878D98",
"C  c #888E99",
"Z  c #8D929C",
"A  c #90949D",
"S  c #95999F",
"D  c #8E94A0",
"F  c #9197A1",
"G  c #959AA3",
"H  c #999DA4",
"J  c #9A9FA9",
"K  c #9DA2AA",
"L  c #A1A5AD",
"P  c #A8AAAF",
"I  c #A1A7B1",
"U  c #A7ABB3",
"Y  c #A6AAB1",
"T  c #A5ABB5",
"R  c #A6ABB5",
"E  c #A7ACB6",
"W  c #A6AAB1",
"Q  c #A9ACB2",
"!  c #A9ADB4",
"~  c #A9AEB5",
"^  c #ACAFB6",
"/  c #A9AEB6",
"(  c #ACB0B7",
")  c #ADB1B7",
"_  c #ADB1B8",
"`  c #AFB3BA",
"'  c #B0B2B7",
"]  c #B1B6BD",
"[  c #B2B6BD",
"{  c #B3B7BD",
"}  c #B2B6BE",
"|  c #B1B4BB",
" . c #B4B9C1",
".. c #B6BBC4",
"X. c #B5BAC2",
"o. c #B8BCC3",
"O. c #BABDC4",
"+. c #BABEC4",
"@. c #BABEC5",
"#. c #B9BEC6",
"$. c #BABFC7",
"%. c #B9BDC3",
"&. c #BDC1C7",
"*. c #BCC0C5",
"=. c #BDC2C9",
"-. c #C0C3C8",
";. c #C3C6CC",
":. c #C5C8CE",
">. c #C7CBD0",
",. c #C8CBD1",
"<. c #C8CCD2",
"1. c #C9CDD4",
"2. c #CBCED5",
"3. c #CDD0D6",
"4. c #CED1D7",
"5. c #CED1D6",
"6. c #CED2D8",
"7. c #CFD2D8",
"8. c #D2D5D9",
"9. c #D5D8DC",
"0. c #DCDDE0",
"q. c #DDE0E3",
"w. c #E3E5E7",
"e. c #E3E6E8",
"r. c #F5F6F7",
"t. c white",
"y. c white",
/* pixels */
"                                                                                                    ",
"                                                                                                    ",
"                                        y $.J T $.$.E I $.y                                         ",
"                                        9 i e b ! ! b i i 9                                         ",
"                                e i Z b 7 i 3 6 N N 6 3 i 7 b G i e                                 ",
"                            t m ..d K 6.y f t < e e < t h y 2.o.l X.m t                             ",
"                        w v } ,.t.&.d Z 9 N i 0 9 9 0 p N 9 A d } t.>.} B e                         ",
"        i i p     s 7 i T } e.q.! d * + ; v e i z z i r v ; @ + i ^ q.w.$.T i 6 j                   ",
"      y n v b m B 3.h 0 Y 6.H t & + * * = # + # & & # + # = * * + & t H <.Y 0 f 3.' e P d p f       ",
"      w z l s Z m s f j 7 w ; + % : = + X                 X + = : % + ; 0 7 j s m Q ) $.i d s       ",
"      q h f i Z C i e N r . + * % + o                         X + & * + . r M t h m :.) t s y       ",
"      w d s a a l B y l ; O # +                                     + # + ; l i p } } L y i w       ",
"      q f i s 7 1 C d = o @ X                                         X + o ; u -.` u G d e 0       ",
"      9 h a f w $ p z o X                                                 X X i 2.z & H h e q       ",
"      0 s p d a % = b ;                                                     @ Y Z 6 1 K p t w       ",
"      6 i a a v 3 = y t                                                     3 L 6 ; t ! p t w       ",
"      6 i i y b t y s q                                                     0 N t i x o.t w q       ",
"      5 i i y p e $ 9 0                                                     9 G i t S G r w 0       ",
"    z i i i i p 3 1 2 9                                                     t b < 4 j N e 6 4 u     ",
"  z =.k t y i u 0 i > 2                                                     w h 3 i t H q < : H b   ",
"  < t w e y i z w 4 - =                                                     6 t < j t K 7 - ; 7 >   ",
"    s w 6 3 > t h > ; %                                                     q 6 , w Z | < % $ <     ",
"    i 1 x e o O p 4 : &                                                     q 9 < t N w y d z d 6   ",
"    i < t w * @ 6 0 1 *                                                     5 6 w s Z 0.;.b F D h   ",
"  0 s g x j 4 % ; < 3 -                                                     3 0 w y 3.t.| m G N m e ",
"  y Z } ;.K 0 * : 6 3 ,                                                     < y 3 Z r.8.Y ` s b h y ",
"    ; 6 0 , = < 1 6 , 1                                                     4 y < K ` o.9.=.x G V Z ",
"      N ! b 1 , 2 9 < >                                                     9 e 4 y Z &.y 0 y j y h ",
"      Z 8.K 3 1 4 7 < :                                                     7 0 e t G e # = : i 0 9 ",
"      M o.G 1 4 6 3 2 :                                                     7 w e h h d g x 0 e 0 7 ",
"      M J z , 3 6 1 ; <                                                     6 i 4 w w N H z 6 t 3 6 ",
"      b G d 6 e y 1 ; ;                                                     6 t : q i a 1 1 : e : ; ",
"      m ` h y c y $ = :                                                     6 0 4 7 h x > 1 < 9 = ; ",
"      z ` h z N 2 = ; ,                                                     5 0 > : h z 3 6 7 3 % = ",
"      h z N G l : : % =                                                     0 4 3 7 w e 0 7 0 $ # & ",
"      0 t i d 5 = $ 1 $                                                     h 0 * 1 e t 0 1 # +     ",
"      < 2 < < 1 1 : : $                                                     d 6 i : 6 A 4 # %       ",
"    7 6 1 3 , w ; = : $                                                     w 3 6 4 e t ; = , 6     ",
"    7 8 ; 2 < 1 = : = =                                                     t 6 , < 7 h < ; 1 3     ",
"  t w 1 6 6 < : ; % = :                                                     6 6 ; 4 < t 3 ; = w t   ",
"  m X.N s p h , @ o 7 ;                                                     ; t > $ 1 0 t t e Y V   ",
"  l C t 3 9 e 0 1 3 0 ,                                                     9 z t ; > y p 0 6 v z   ",
"  d Z 7 * = > t 6 t 7 &                                                     ; a j p e h * + = V f   ",
"  p M 6 = = 1 0 e 6 < $                                                     ; 6 i h z h = $ ; b p   ",
"  6 p 1 = = , 4 , , =                                                       - 1 5 0 s r = % = i 6   ",
"  3 e , * % , 7 : & $                                                         : < 3 9 e = # = e 3   ",
"    7 ; % $ ; 3 & +                                                             ; : 6 t * $ & 6     ",
"      @ * % * *                                                                   $ 1 6 ; : =       ",
"      # * * $                                                                         ; : : *       ",
"                                                                                                    "
};
