/* XPM */
static char *_f66d6330a0746879f4dec27ada0c376BR0lmj3T3c6MEAoI[] = {
/* columns rows colors chars-per-pixel */
"50 50 2 1 ",
"  c None",
". c white",
/* pixels */
"                                                  ",
"                                                  ",
"                                                  ",
"                                                  ",
"                                                  ",
"                                                  ",
"                       ........                   ",
"                     ...........                  ",
"                   .....      ...                 ",
"                 .....         ...                ",
"                ....            ..                ",
"                ..              ...               ",
"               ...               ..               ",
"               ..                ..               ",
"               ..                ..               ",
"               ...               ..               ",
"                ...              ..               ",
"                 ..              ..               ",
"                 ...             ..               ",
"                  ......         ..               ",
"                   .....         ..               ",
"                                ...               ",
"                                ..                ",
"                                ..                ",
"                               ...                ",
"                               ..                 ",
"                              ...                 ",
"                             ...                  ",
"                             ..                   ",
"                            ...                   ",
"                           ...                    ",
"                           ..                     ",
"              ....        ...                     ",
"             ........... ...                      ",
"             ..  ...........         ..           ",
"             ...      ....          ...           ",
"             ..... .........      .....           ",
"              .........  ............             ",
"                 ...       ........               ",
"                                                  ",
"                                                  ",
"                                                  ",
"                                                  ",
"                                                  ",
"                                                  ",
"                                                  ",
"                                                  ",
"                                                  ",
"                                                  ",
"                                                  "
};
