/* XPM */
static char *b0fcc09cc39548088622b5f0d38a9f68fh2sjQ5xdYquUO0V[] = {
/* columns rows colors chars-per-pixel */
"50 50 2 1 ",
"  c None",
". c white",
/* pixels */
"                                                  ",
"                                                  ",
"                                                  ",
"                                                  ",
"                                                  ",
"                                                  ",
"                           ........               ",
"                       ............               ",
"                      ......                      ",
"                     ...                          ",
"                    ...                           ",
"                   ...                            ",
"                   ..                             ",
"                   ..                             ",
"                  ...                             ",
"                  ..                              ",
"                 ...                              ",
"                 ..                               ",
"                 ..                               ",
"                 ..                               ",
"                 ..                               ",
"                 ..                               ",
"                ...                               ",
"                ...............                   ",
"                .................                 ",
"                ...           .....               ",
"                ..              ....              ",
"                ..               ...              ",
"                ..                ..              ",
"                ..                ...             ",
"                ..                 ..             ",
"                ...                ..             ",
"                 ..                ..             ",
"                 ...               ..             ",
"                 ...              ...             ",
"                  .....          ...              ",
"                  ........      ....              ",
"                      .............               ",
"                         .........                ",
"                                                  ",
"                                                  ",
"                                                  ",
"                                                  ",
"                                                  ",
"                                                  ",
"                                                  ",
"                                                  ",
"                                                  ",
"                                                  ",
"                                                  "
};
