/* XPM */
static char *f2504b79f1094a7f9930f5452e1e757cD5WYZLxAIEWRSAJm[] = {
/* columns rows colors chars-per-pixel */
"50 50 2 1 ",
"  c None",
". c white",
/* pixels */
"                                                  ",
"                                                  ",
"                                                  ",
"                                                  ",
"                                                  ",
"                                                  ",
"                                                  ",
"                                                  ",
"                                                  ",
"               .....................              ",
"               .....................              ",
"                                 ...              ",
"                                 ..               ",
"                                 ..               ",
"                                ...               ",
"                                ..                ",
"                                ..                ",
"                               ...                ",
"                               ..                 ",
"                               ..                 ",
"                               ..                 ",
"                               ..                 ",
"                               ..                 ",
"                               ..                 ",
"                     ...................          ",
"                     ...................          ",
"                              ..                  ",
"                              ..                  ",
"                              ..                  ",
"                             ...                  ",
"                             ..                   ",
"                             ..                   ",
"                            ...                   ",
"                            ..                    ",
"                           ...                    ",
"                           ..                     ",
"                           ..                     ",
"                           ..                     ",
"                           ..                     ",
"                           ..                     ",
"                           ..                     ",
"                           ..                     ",
"                                                  ",
"                                                  ",
"                                                  ",
"                                                  ",
"                                                  ",
"                                                  ",
"                                                  ",
"                                                  "
};
