/* XPM */
static char *_3bbf21d023d44a8e97bdb0c515f7889Hqb48pJVlKBdVuFG[] = {
/* columns rows colors chars-per-pixel */
"50 50 2 1 ",
"  c None",
". c white",
/* pixels */
"                                                  ",
"                                                  ",
"                                                  ",
"                                                  ",
"                                                  ",
"                                                  ",
"                                                  ",
"                                                  ",
"                                                  ",
"                 ............                     ",
"                ..............                    ",
"                ..         ....                   ",
"               ...          ....                  ",
"              ...           ......                ",
"              ..              .....               ",
"             ...                ...               ",
"             ..                  ..               ",
"             ..                  ...              ",
"            ...                   ..              ",
"            ..                    ..              ",
"            ..                    ..              ",
"            ..                    ..              ",
"            ..                    ..              ",
"            ..                    ..              ",
"            ..                    ..              ",
"            ..                    ..              ",
"            ..                    ..              ",
"            ..                    ..              ",
"            ..                    ..              ",
"            ..                    ..              ",
"            ..                   ...              ",
"            ..                   ..               ",
"            ..                  ...               ",
"            ..                 ...                ",
"            ..                ....                ",
"            ...               ..                  ",
"             ..              ...                  ",
"             ...           .....                  ",
"              ...         ....                    ",
"              ....    ......                      ",
"               ............                       ",
"                 ......                           ",
"                                                  ",
"                                                  ",
"                                                  ",
"                                                  ",
"                                                  ",
"                                                  ",
"                                                  ",
"                                                  "
};
