/* XPM */
static char *_d1e23ff840c4714ff2a9cf6fe534ae1NH9z7UWdW2AVXWjp[] = {
/* columns rows colors chars-per-pixel */
"50 50 2 1 ",
"  c None",
". c white",
/* pixels */
"                                                  ",
"                                                  ",
"                                                  ",
"                                                  ",
"                                                  ",
"                                                  ",
"                           ..                     ",
"                           ..                     ",
"                          ...                     ",
"                          ...                     ",
"                          ...                     ",
"                         ....                     ",
"                        .....                     ",
"                       ... ..                     ",
"                      ...  ..                     ",
"                      ..   ..                     ",
"                     ...   ..                     ",
"                    ...    ..                     ",
"                    ..     ..                     ",
"                   ...    ...                     ",
"               ......     ..                      ",
"               .....      ..                      ",
"                          ..                      ",
"                          ..                      ",
"                          ..                      ",
"                          ..                      ",
"                          ..                      ",
"                          ..                      ",
"                          ..                      ",
"                          ..                      ",
"                          ..                      ",
"                          ..                      ",
"                          ..                      ",
"                          ..                      ",
"                       ............               ",
"                  .................               ",
"                  ......                          ",
"                                                  ",
"                                                  ",
"                                                  ",
"                                                  ",
"                                                  ",
"                                                  ",
"                                                  ",
"                                                  ",
"                                                  ",
"                                                  ",
"                                                  ",
"                                                  ",
"                                                  "
};
