/* XPM */
static char *_1a86cc9fad242eccc798d7f7246855aE3DpzLoAlof2hqTl[] = {
/* columns rows colors chars-per-pixel */
"50 50 2 1 ",
"  c None",
". c white",
/* pixels */
"                                                  ",
"                                                  ",
"                                                  ",
"                                                  ",
"                                                  ",
"                                                  ",
"                                                  ",
"                                                  ",
"                                                  ",
"                    ...........                   ",
"                 ................                 ",
"                .....         ....                ",
"               ...              ...               ",
"               ..                ..               ",
"               ..                ...              ",
"                                  ..              ",
"                                  ..              ",
"                                 ...              ",
"                                ....              ",
"                               ....               ",
"                          ........                ",
"                          ......                  ",
"                          .........               ",
"                               .....              ",
"                                 ...              ",
"                                  ..              ",
"                                  ..              ",
"                                  ...             ",
"                                   ..             ",
"                                   ..             ",
"                 ..                ..             ",
"                 ...              ...             ",
"                 .....           ....             ",
"                  ..................              ",
"                    ..............                ",
"                                                  ",
"                                                  ",
"                                                  ",
"                                                  ",
"                                                  ",
"                                                  ",
"                                                  ",
"                                                  ",
"                                                  ",
"                                                  ",
"                                                  ",
"                                                  ",
"                                                  ",
"                                                  ",
"                                                  "
};
