/* XPM */
static char *_670b9a050f64481ce5e006c029f80d6nWruiWNJLF2OB9gL[] = {
/* columns rows colors chars-per-pixel */
"50 50 2 1 ",
"  c None",
". c white",
/* pixels */
"                                                  ",
"                                                  ",
"                                                  ",
"                                                  ",
"                                                  ",
"                                                  ",
"                                                  ",
"                    ..                            ",
"                    ..                            ",
"                    ..                            ",
"                    ..                            ",
"                    ..                            ",
"                    ..                            ",
"                   ...                            ",
"                   ..                             ",
"                   ..                             ",
"                   ..                             ",
"                  ...                             ",
"                  ..       ..                     ",
"                  ..       ..                     ",
"                  ..       ..                     ",
"                 ...       ..                     ",
"                ...        ..                     ",
"               ...         ..                     ",
"               ...         ..                     ",
"               ...............                    ",
"               ...............                    ",
"                           ..                     ",
"                           ..                     ",
"                           ..                     ",
"                           ..                     ",
"                           ..                     ",
"                           ..                     ",
"                           ..                     ",
"                           ..                     ",
"                           ..                     ",
"                           ..                     ",
"                           ..                     ",
"                           ..                     ",
"                           ..                     ",
"                                                  ",
"                                                  ",
"                                                  ",
"                                                  ",
"                                                  ",
"                                                  ",
"                                                  ",
"                                                  ",
"                                                  ",
"                                                  "
};
