/* XPM */
static char *e1493d7c90c447779ae83288d98916a2tltourXzuOKLPyGa[] = {
/* columns rows colors chars-per-pixel */
"50 50 2 1 ",
"  c None",
". c white",
/* pixels */
"                                                  ",
"                                                  ",
"                                                  ",
"                                                  ",
"                                                  ",
"                                                  ",
"                                                  ",
"                                                  ",
"                                                  ",
"                                                  ",
"                                                  ",
"                                                  ",
"                 ................                 ",
"                 ................                 ",
"                 ..                               ",
"                 ..                               ",
"                 ..                               ",
"                 ..                               ",
"                 ..                               ",
"                 ..                               ",
"                 ..                               ",
"                 ..                               ",
"                 ..                               ",
"                 ..........                       ",
"                 .............                    ",
"                 ..       .....                   ",
"                            ....                  ",
"                              ..                  ",
"                              ...                 ",
"                              ...                 ",
"                               ..                 ",
"                               ..                 ",
"                               ..                 ",
"                               ..                 ",
"                               ..                 ",
"                              ...                 ",
"                  ...        ....                 ",
"                  ........ .....                  ",
"                   ............                   ",
"                         ...                      ",
"                                                  ",
"                                                  ",
"                                                  ",
"                                                  ",
"                                                  ",
"                                                  ",
"                                                  ",
"                                                  ",
"                                                  ",
"                                                  "
};
