/* XPM */
static char *d1f0bb4b3b574a62ac544b3c3f88a62eWH3smWEUrrmR6nnQ[] = {
/* columns rows colors chars-per-pixel */
"50 50 2 1 ",
"  c None",
". c white",
/* pixels */
"                                                  ",
"                                                  ",
"                                                  ",
"                                                  ",
"                                                  ",
"                                                  ",
"                       ......                     ",
"                      ..........                  ",
"                    .....  ......                 ",
"                   ....       ....                ",
"                  ....         ...                ",
"                  ..            ...               ",
"                  ..             ..               ",
"                  ..             ..               ",
"                  ..             ..               ",
"                  ...           ...               ",
"                  ...           ..                ",
"                   ...         ...                ",
"                    ....      ...                 ",
"                     ....    ....                 ",
"                       ........                   ",
"                        ......                    ",
"                       .......                    ",
"                      ..... ...                   ",
"                     ...     ...                  ",
"                     ..       ...                 ",
"                    ...       ...                 ",
"                    ..         ..                 ",
"                    ..         ...                ",
"                    ..          ..                ",
"                    ...         ..                ",
"                     ..         ..                ",
"                     ..         ..                ",
"                     ...      ....                ",
"                      ..... .....                 ",
"                       .........                  ",
"                          ...                     ",
"                                                  ",
"                                                  ",
"                                                  ",
"                                                  ",
"                                                  ",
"                                                  ",
"                                                  ",
"                                                  ",
"                                                  ",
"                                                  ",
"                                                  ",
"                                                  ",
"                                                  "
};
