/* XPM */
static char *result[] = {
/* columns rows colors chars-per-pixel */
"150 50 2 1 ",
"  c white",
". c None",
/* pixels */
"......................................................................................................................................................",
"......................................................................................................................................................",
"......................................................................................................................................................",
"......................................................................................................................................................",
"......................................................................................................................................................",
"......................................................................................................................................................",
".......................    ...........................................................................................................................",
"....................   ....    ...............................             ...........................................................................",
"...................  ..........  ........                ....  ....................           ........................................................",
"................... ............ ................ ............ ...................  ..........  ......................................................",
".................. .............................. ............ ................... ............. ................  ...................................",
".................. .............................. ............ ................... ............. ............    .. ..................................",
"................. ............................... ........... .................... .............. .........  .........................................",
"................. ............................... ........... .................... .............. ........ ..........................    .............",
"................. ............................... ........... .................... .............. ........ .......................... .. .............",
"................. ............................... ........... .................... .............. ....... ............................   .............",
"................. ............................... ........... .................... ............  ......... ...........................................",
"................. ............................... ........... .................... ..........  ........... ...........................................",
".................  .............................. ........... .....        ....... ......     .............  .........................................",
"................... ............................. ...........      ...............       .................... ........................................",
"...................    .......................... ........... .................... ........................... .......................................",
".......................       ................... ........... .................... ............................  .....................................",
".............................  .................. ........... .................... .............................. ....................................",
"...............................  ................ ........... .................... ............................... ...................................",
"................................  ............... ........... .................... ............................... ...................................",
"................................. ............... ........... .................... ............................... ...................................",
"................................. ............... ........... .................... ..............................  ...................................",
"................................. ............... ........... .................... .............................. ....................................",
"................................. ............... ........... .................... ............................. .....................................",
"................................. ............... ........... .......... ......... ................ ........... ......................   .............",
".............. ................. ................ ............       ..  ......... ................ .......... ...................... .. .............",
"...............  ..............  ................ ...................  ............ ...............    .....  ....................... .. .............",
".................   ..........  ................. ................................. ...................     .........................   ..............",
"....................          ................... ................................. ..................................................................",
"................................................. ................................  ..................................................................",
"................................................. ................................. ..................................................................",
"................................................. ....................................................................................................",
"................................................. ....................................................................................................",
"......................................................................................................................................................",
"......................................................................................................................................................",
"......................................................................................................................................................",
"......................................................................................................................................................",
"......................................................................................................................................................",
"......................................................................................................................................................",
"......................................................................................................................................................",
"......................................................................................................................................................",
"......................................................................................................................................................",
"......................................................................................................................................................",
"......................................................................................................................................................",
"......................................................................................................................................................"
};
